<?xml version="1.0" encoding="UTF-8" standalone="no"?>
<svg
   xmlns:dc="http://purl.org/dc/elements/1.1/"
   xmlns:cc="http://creativecommons.org/ns#"
   xmlns:rdf="http://www.w3.org/1999/02/22-rdf-syntax-ns#"
   xmlns:svg="http://www.w3.org/2000/svg"
   xmlns="http://www.w3.org/2000/svg"
   xmlns:xlink="http://www.w3.org/1999/xlink"
   xmlns:sodipodi="http://sodipodi.sourceforge.net/DTD/sodipodi-0.dtd"
   xmlns:inkscape="http://www.inkscape.org/namespaces/inkscape"
   version="1.1"
   id="svg10"
   width="1920"
   height="2887"
   viewBox="0 0 1920 2887"
   sodipodi:docname="map.svg"
   inkscape:version="1.0.2-2 (e86c870879, 2021-01-15)">
  <sodipodi:namedview
     pagecolor="#ffffff"
     bordercolor="#666666"
     borderopacity="1"
     objecttolerance="10"
     gridtolerance="10"
     guidetolerance="10"
     inkscape:pageopacity="0"
     inkscape:pageshadow="2"
     inkscape:window-width="1920"
     inkscape:window-height="1017"
     id="namedview865"
     showgrid="false"
     inkscape:zoom="0.41637739"
     inkscape:cx="767.93052"
     inkscape:cy="1496.9538"
     inkscape:window-x="-8"
     inkscape:window-y="-8"
     inkscape:window-maximized="1"
     inkscape:current-layer="svg10"
     inkscape:document-rotation="0" />
  <metadata
     id="metadata16">
    <rdf:RDF>
      <cc:Work
         rdf:about="">
        <dc:format>image/svg+xml</dc:format>
        <dc:type
           rdf:resource="http://purl.org/dc/dcmitype/StillImage" />
        <dc:title></dc:title>
      </cc:Work>
    </rdf:RDF>
  </metadata>
  <defs
     id="defs14" />
  <g
     id="g18"
     transform="translate(0,0.07543793)"
     style="stroke-width:1.0015748;stroke-miterlimit:4;stroke-dasharray:none">
    <image
       sodipodi:absref="C:\Users\agro\source\repos\YSI.CurseOfSilverCrown\YSI.CurseOfSilverCrown.Web\wwwroot\assets\images\map.jpg"
       xlink:href="map.jpg"
       width="1920"
       height="2887"
       preserveAspectRatio="none"
       id="image20"
       style="stroke-width:1.0015748;stroke-miterlimit:4;stroke-dasharray:none" />
    <path
       style="fill:none;stroke:#000000;stroke-width:1.0015748;stroke-linecap:butt;stroke-linejoin:miter;stroke-opacity:0.01176471;stroke-miterlimit:4;stroke-dasharray:none"
       d="m 1017.6675,86.68544 7.6421,-33.96471 11.463,-11.88764 76.4206,-21.22795 41.4084,-3.093677 1.3509,69.798459 z"
       id="1"
       class="feoda" />
    <path
       style="fill:none;stroke:#000000;stroke-width:1.0015748;stroke-linecap:butt;stroke-linejoin:miter;stroke-opacity:0.01176471;stroke-miterlimit:4;stroke-dasharray:none"
       d="m 1154.6016,16.511463 1.3509,69.798459 120.006,-0.23062 -2.282,-68.172392 -66.6558,-5.51927 z"
       id="2"
       class="feoda" />
    <path
       style="fill:none;stroke:#000000;stroke-width:1.0015748;stroke-linecap:butt;stroke-linejoin:miter;stroke-opacity:0.01176471;stroke-miterlimit:4;stroke-dasharray:none"
       d="m 1273.6765,17.90691 2.282,68.172392 69.8929,-0.167544 -1.2736,-11.88765 14.435,-4.67014 29.7191,-1.773678 11.0385,-8.415742 27.5963,-1.198232 -2.5473,-11.963088 -8.9158,-17.83147 L 1416.3282,0.5 h -79.8171 l -19.9542,12.73676 z"
       id="3"
       class="feoda" />
    <path
       style="fill:none;stroke:#000000;stroke-width:1.0015748;stroke-linecap:butt;stroke-linejoin:miter;stroke-opacity:0.01176471;stroke-miterlimit:4;stroke-dasharray:none"
       d="m 1017.6675,86.68544 328.1839,-0.84912 -1.2736,-11.88765 14.435,-4.67014 29.7191,-1.69824 11.0385,-8.49118 27.5963,-1.27367 20.3789,25.822648 2.9719,22.926172 -14.8596,5.94383 -8.0666,8.06662 -13.5859,3.82103 -9.3403,9.76485 3.3965,12.73676 h -10.614 l -3.3964,9.76486 -42.4559,14.01044 -42.0313,4.24559 -8.9158,3.82102 -10.1894,-8.06661 -8.0666,0.42456 -6.7929,-4.24559 -5.9439,2.54735 -4.6701,-10.61397 -16.1332,18.25603 -6.3684,-5.51927 -5.0947,5.09471 -5.9439,-6.79294 -14.435,16.55779 -3.821,-5.0947 -14.0104,3.39647 -14.435,-8.49118 -28.0209,-5.94382 -21.2279,-12.73677 -6.793,-8.91573 -8.5241,4.96102 -19.3634,-11.78318 -11.0327,11.63307 -16.5114,-11.70812 -15.3857,13.73453 -35.3496,-30.47115 19.1383,-14.03475 -3.3023,-5.40375 3.9778,-4.05281 -14.1098,-3.4524 z"
       id="4"
       class="feoda" />
    <path
       style="fill:none;stroke:#000000;stroke-width:1.0015748;stroke-linecap:butt;stroke-linejoin:miter;stroke-opacity:0.01176471;stroke-miterlimit:4;stroke-dasharray:none"
       d="m 1416.3282,0.5 -0.4246,27.59632 8.9158,17.83147 2.5473,11.963088 20.3789,25.822648 2.9719,22.926174 12.7368,15.63324 27.5963,14.435 5.9438,4.67015 6.1561,12.73676 10.4017,7.00522 11.8877,1.91052 11.6753,14.435 12.3122,3.60875 17.4069,1.69823 22.2894,9.97714 18.0437,-0.21228 5.5193,-10.18941 23.7753,-0.21228 8.2789,-1.91052 0.6368,-13.79816 11.6754,-9.97713 6.7929,-10.82625 -0.4245,-10.18942 11.8876,-13.3736 11.8877,-27.384042 3.821,-20.166544 11.8876,-11.675368 7.2175,-35.450662 2.972,-27.17176459 z"
       id="5"
       class="feoda" />
    <path
       style="fill:none;stroke:#000000;stroke-width:1.0015748;stroke-linecap:butt;stroke-linejoin:miter;stroke-opacity:0.01176471;stroke-miterlimit:4;stroke-dasharray:none"
       d="m 1644.7409,180.30066 -8.2789,1.91052 -23.7753,0.21228 -5.5193,10.18941 -18.0437,0.21228 -22.2894,-9.97714 -17.4069,-1.69823 -12.3122,-3.60875 -11.6753,-14.435 -11.8877,-1.91052 -10.4017,-7.00522 -31.9791,31.33852 -4.353,-0.30021 -7.205,5.55385 -10.8075,2.70188 -0.7506,7.65531 -9.7567,5.10355 h -4.1279 l -12.4587,7.3551 -12.3085,2.40167 -5.5539,5.10354 -6.3043,-0.45031 3.4988,20.49622 0.2123,15.70868 -11.0385,20.5911 -38.2103,43.94184 -3.8211,9.55257 -10.1894,10.18942 0.2123,5.30698 14.0105,3.39647 18.4683,9.55257 14.435,35.23839 16.1332,18.68059 v 7.85433 l -1.9105,28.02089 9.3403,8.91573 -0.2123,11.67537 -3.3965,3.60875 6.1561,8.06662 0.8492,9.97713 15.4963,18.25603 13.5859,0.42456 1.6983,3.60875 11.2508,2.75963 8.9157,10.82625 10.1894,0.84912 5.5193,5.30698 -1.486,10.61397 7.4298,9.97714 h 4.0333 l 25.4735,23.77529 10.8263,-28.87 7.2175,-2.97191 15.4964,-35.23838 9.9771,-3.39647 17.8315,7.2175 11.2508,1.27367 24.6244,13.79816 12.9491,0.42456 13.3736,2.54736 7.0052,-27.38405 5.7315,-6.1561 0.4246,-16.5578 4.8824,-7.64205 1.9105,-13.79817 3.3965,-4.67014 -1.486,-16.77008 7.8544,-9.12801 0.4245,-11.88765 8.0667,-13.58588 10.4017,-30.35596 3.1841,-4.88242 v -10.4017 l -6.3683,-13.16132 9.9771,-19.5297 0.2123,-26.74721 -8.4912,-15.4964 v -9.55257 l 2.7596,-10.61397 -0.6368,-10.82625 -14.8596,-11.25081 -7.8543,-16.55779 -7.4298,-11.25081 0.4246,-15.4964 1.4859,-6.36838 z"
       id="6"
       class="feoda" />
    <path
       style="fill:none;stroke:#000000;stroke-width:1.0015748;stroke-linecap:butt;stroke-linejoin:miter;stroke-opacity:0.01176471;stroke-miterlimit:4;stroke-dasharray:none"
       d="m 1338.2094,346.51544 -0.2123,-5.30698 10.1894,-10.18942 3.8211,-9.55257 38.2103,-43.94184 11.0385,-20.5911 -0.2123,-15.70868 -3.4988,-20.49622 6.3043,0.45031 5.5539,-5.10354 12.3085,-2.40167 12.4587,-7.3551 h 4.1279 l 9.7567,-5.10355 0.7506,-7.65531 10.8075,-2.70188 7.205,-5.55385 4.353,0.30021 31.9791,-31.41396 -6.1561,-12.73676 -5.9438,-4.67015 -27.5963,-14.435 -12.7368,-15.63324 -14.8596,5.86839 -8.0666,8.06662 -13.5859,3.82103 -9.3403,9.76485 3.3965,12.73676 h -10.614 l -3.3964,9.76486 -42.4559,14.01044 -42.0313,4.24559 -8.9158,3.82102 -10.1894,-8.06661 -8.0666,0.42456 -6.7929,-4.24559 -5.9439,2.54735 -4.6701,-10.61397 -16.1332,18.25603 -6.3684,-5.51927 -5.0947,5.09471 -5.9439,-6.79294 -14.435,16.55779 -3.821,-5.0947 -14.0104,3.39647 -14.435,-8.49118 -18.999,-3.89647 -9.871,11.99379 4.0333,3.82103 -7.1114,6.1561 5.8377,19.31743 -4.4579,7.00522 5.2009,11.03853 0.2123,13.9043 -23.1385,13.79816 5.6254,23.45688 7.6421,13.47974 -1.9105,28.02088 -5.4132,7.00522 1.5921,29.50684 -5.9438,15.39026 -0.3184,8.59731 -4.6702,3.29034 2.229,20.90952 -4.0333,12.8429 -2.229,12.20607 -6.0499,6.47452 0.2123,9.34029 7.7481,10.72011 13.7982,8.49118 32.691,5.83769 h 22.0771 l 12.0999,-3.1842 9.4465,3.29033 21.334,-12.63062 5.2009,-0.5307 37.4673,-21.97092 4.9886,-6.04996 -1.9105,-26.42879 17.1946,-24.41213 z"
       id="7"
       class="feoda" />
    <path
       style="fill:none;stroke:#000000;stroke-width:1.0015748;stroke-linecap:butt;stroke-linejoin:miter;stroke-opacity:0.01176471;stroke-miterlimit:4;stroke-dasharray:none"
       d="m 1017.6675,86.760878 10.7715,11.33261 14.1098,3.452402 -3.9778,4.05281 3.3023,5.40375 -19.1383,14.03475 35.3496,30.47115 15.3857,-13.73453 16.5114,11.70812 11.0327,-11.63307 19.3634,11.78318 8.5241,-4.96102 6.793,8.91573 21.2279,12.73677 9.0219,2.12279 -9.871,11.99379 4.0333,3.82103 -7.1114,6.1561 5.8377,19.31743 -4.4579,7.00522 5.2009,11.03853 0.2123,13.9043 -23.1385,13.79816 4.1395,17.43761 -16.5578,3.92717 -13.0552,7.42978 -11.9938,-3.92717 -16.3455,1.91052 -4.1395,4.564 9.128,7.53592 -9.8709,5.30699 -7.6421,8.17276 -28.2332,-9.02188 -18.4683,-0.10614 -2.335,5.51927 8.5973,4.98856 1.2736,8.70346 9.3403,11.67537 -4.4578,6.47452 -4.8825,-0.5307 -2.8657,4.77629 7.7482,5.83768 -4.1395,7.85434 -8.9157,7.85434 -11.4631,1.48595 -21.54636,7.7482 9.65871,12.94905 0.74295,7.64205 -8.17273,7.7482 -11.25081,-2.54735 -11.88764,3.50261 -2.54736,-7.2175 -4.88242,-3.39647 -13.16133,-2.54735 -2.75963,-6.79294 10.40169,-8.70346 4.67015,-6.1561 4.24559,-1.27368 3.60875,-7.00522 -8.06662,-7.42978 -16.55779,-5.51926 -26.53493,-5.73155 -5.73154,-6.36838 7.85433,-8.49118 18.46831,-8.91573 1.27368,-5.94383 4.88243,-5.51926 1.06139,-7.85434 11.03853,-3.60875 6.36838,-4.24559 10.82625,-15.49639 6.15611,4.0333 16.98235,-14.64728 7.64206,-10.40169 -0.4246,-27.59632 -2.7596,-5.09471 4.8824,-5.94382 -11.03849,-11.67537 -6.36839,-2.12279 4.88243,-5.09471 8.91575,-8.70345 9.9771,-6.36839 1.9105,-10.82625 -2.7596,-4.88242 3.1842,-5.73155 -15.92097,-12.52448 V 137.1325 l -4.0333,-5.94382 3.39647,-5.30699 -11.25081,-6.1561 9.55257,-11.25081 -6.58066,-4.24559 z"
       id="8"
       class="feoda" />
    <path
       style="fill:none;stroke:#000000;stroke-width:1.0015748;stroke-linecap:butt;stroke-linejoin:miter;stroke-opacity:0.01176471;stroke-miterlimit:4;stroke-dasharray:none"
       d="m 911.74008,336.32603 7.85433,-8.49118 18.46831,-8.91573 1.27368,-5.94383 4.88243,-5.51926 1.06139,-7.85434 11.03853,-3.60875 6.36838,-4.24559 10.82625,-15.49639 6.15611,4.0333 16.98235,-14.64728 7.64206,-10.40169 -0.4246,-27.59632 -2.7596,-5.09471 4.8824,-5.94382 -11.03849,-11.67537 -6.36839,-2.12279 13.79818,-13.79816 9.9771,-6.36839 1.9105,-10.82625 -2.7596,-4.88242 3.1842,-5.73155 -15.92097,-12.52448 v -11.46309 l -4.0333,-5.94382 3.39647,-5.30699 -11.25081,-6.1561 9.55257,-11.25081 -6.58066,-4.24559 27.8086,-17.468314 4.3921,-19.589629 -9.0063,-7.730367 -18.08753,10.056982 -15.68589,1.42599 -1.80125,3.002085 7.43016,1.876302 -13.95969,11.182764 -8.40584,-0.450313 -2.17651,4.878387 -7.65532,-1.951355 -3.00208,3.002085 -8.9312,-3.827658 -15.53579,0.225157 -8.40583,7.205002 -18.68234,4.054132 -8.91573,5.94383 -19.10515,10.18941 -3.82103,7.42978 -10.61397,10.18941 -5.09471,-0.42456 -13.3736,18.46831 -6.1561,3.18419 -11.88765,-1.0614 -4.03331,14.85956 -1.06139,13.37361 -2.1228,7.42977 -5.73154,9.97714 -4.67015,14.22272 -9.34029,6.1561 -9.76486,1.91052 -1.48595,22.50161 -13.79816,13.16133 -9.55258,4.88242 0.42456,4.24559 5.09471,2.97191 6.1561,16.5578 17.19463,5.51926 4.88243,6.79294 -1.27368,17.40691 2.97191,22.07706 4.03331,5.30699 5.73155,2.97191 3.18419,10.40169 5.30698,-4.03331 7.2175,2.54736 11.88765,22.07705 18.04375,-20.5911 31.20507,-21.01566 24.41214,-3.60875 z"
       id="9"
       class="feoda" />
    <path
       style="fill:none;stroke:#000000;stroke-width:1.0015748;stroke-linecap:butt;stroke-linejoin:miter;stroke-opacity:0.01176471;stroke-miterlimit:4;stroke-dasharray:none"
       d="m 819.18625,154.19029 -4.03331,14.85956 -1.06139,13.37361 -2.1228,7.42977 -5.73154,9.97714 -4.67015,14.22272 -9.34029,6.1561 -9.76486,1.91052 -1.48595,22.50161 -13.79816,13.16133 -9.55258,4.88242 -10.40645,15.02772 -4.80334,-0.60041 -5.10354,-3.00209 -12.60876,1.20083 h -23.11604 l -9.00626,-9.00625 -12.90896,3.6025 -24.46698,-0.1501 -4.57818,3.82766 -15.836,-6.37943 -15.16052,3.37734 -28.29465,-14.18485 -0.60041,-6.22932 -5.40376,-6.75469 0.45032,-7.43016 4.27797,-3.07714 0.0751,-60.11673 5.92912,-14.03475 18.31271,-2.70187 36.62543,-2.70188 15.76094,-6.07922 6.75469,0.52537 5.10354,2.10146 52.61153,2.0264 12.83391,-11.70813 25.51771,-0.90062 8.85615,4.05281 12.15844,1.65115 z"
       id="10"
       class="feoda" />
    <path
       style="fill:none;stroke:#000000;stroke-width:1.0015748;stroke-linecap:butt;stroke-linejoin:miter;stroke-opacity:0.01176471;stroke-miterlimit:4;stroke-dasharray:none"
       d="m 591.33554,256.45343 28.29465,14.18485 2.77305,6.17407 -1.69824,25.79195 18.89287,37.89188 -10.82625,11.35695 -0.63684,20.90952 4.03331,10.08327 -7.85434,6.36838 -12.94904,4.03331 1.51079,2.87741 -7.0549,7.65531 -13.65948,26.86865 -18.91313,19.66366 1.95135,7.80541 13.65948,5.25365 -1.65114,10.95761 12.00833,6.90479 v 6.45448 l -1.80125,6.15428 5.55386,10.20708 7.205,4.65323 -0.75052,5.25365 -4.05281,4.95344 0.60041,11.40792 -15.76094,9.90688 -6.30438,12.75886 -25.66782,12.30854 -4.20291,9.00625 -11.10772,10.05699 -74.30158,1.05073 -1.20083,-15.01042 -10.80751,-6.60459 -12.00833,-0.30021 -0.60042,-22.21542 -22.20907,-9.0913 -2.44121,-4.51094 0.0531,-9.60564 -3.66182,-6.89908 6.73987,-8.49118 3.23726,-0.74298 4.98857,-15.01877 13.63895,-7.00522 0.0531,-6.47452 10.61397,-11.72844 3.50261,-0.84912 14.22272,-21.22794 9.65871,-5.30698 5.30699,-15.28412 7.85434,-1.37982 0.74298,-9.65871 1.59209,-2.97191 -6.89908,-7.7482 0.31842,-6.47452 -16.55779,-8.2789 -8.59732,1.27368 -2.54735,4.03331 -16.13324,-0.84912 -8.80959,6.79294 -12.41835,5.51926 -7.96048,19.95427 -11.25081,5.73154 -6.36838,15.39026 -6.1561,-0.5307 -2.33508,-14.85956 4.24559,-6.58066 0.5307,-29.71912 3.29033,-7.85433 -2.65349,-18.36217 6.1561,-13.37361 0.31842,-15.49639 11.14467,-6.79294 6.6868,-20.90953 22.07706,-2.44121 3.07805,-4.13945 9.65872,0.10614 5.83768,-5.41312 7.53592,1.59209 2.01665,-6.79294 8.06662,-3.39647 3.29033,-8.38504 -1.80437,-25.79195 5.0947,-1.69823 16.66394,6.1561 3.50261,5.62541 18.89286,7.00522 7.2175,-11.46309 14.24636,0.19537 13.73453,1.5761 z"
       id="11"
       class="feoda" />
    <path
       style="fill:none;stroke:#000000;stroke-width:1.0015748;stroke-linecap:butt;stroke-linejoin:miter;stroke-opacity:0.01176471;stroke-miterlimit:4;stroke-dasharray:none"
       d="m 830.43706,377.50823 -11.88765,-22.07705 -7.2175,-2.54736 -5.30698,4.03331 -3.18419,-10.40169 -5.73155,-2.97191 -4.03331,-5.30699 -2.97191,-22.07706 1.27368,-17.40691 -4.88243,-6.79294 -17.19463,-5.51926 -6.1561,-16.5578 -5.09471,-2.97191 -0.42456,-4.24559 -10.40645,15.10316 -4.80334,-0.60041 -5.10354,-3.00209 -12.60876,1.20083 h -23.11604 l -9.00626,-9.00625 -12.90896,3.6025 -24.46698,-0.1501 -4.57818,3.82766 -15.836,-6.37943 -15.16052,3.45278 2.77305,6.17407 -1.69824,25.79195 18.89287,37.89188 -10.82625,11.35695 -0.63684,20.90952 4.03331,10.08327 -7.85434,6.36838 -12.94904,4.03331 1.51079,2.87741 -7.0549,7.65531 -13.65948,26.86865 -18.91313,19.66366 1.95135,7.80541 13.65948,5.25365 16.56206,1.86933 8.70346,-3.18419 29.29456,9.12802 7.42978,-7.64206 7.85434,0.63683 8.27889,-7.2175 3.82103,2.75964 24.19986,-12.31221 17.40691,-7.42978 45.00323,2.1228 8.70346,-6.36839 12.94904,2.97192 8.70346,-12.73677 45.15937,-0.34923 15.91105,2.40166 -23.71647,-34.22376 -1.05073,-12.00833 z"
       id="12"
       class="feoda" />
    <path
       style="fill:none;stroke:#000000;stroke-width:1.0015748;stroke-linecap:butt;stroke-linejoin:miter;stroke-opacity:0.01176471;stroke-miterlimit:4;stroke-dasharray:none"
       d="m 848.83932,428.17265 -23.71647,-34.22376 -1.05073,-12.00833 6.36494,-4.35689 18.04375,-20.66654 31.20507,-21.01566 24.41214,-3.60875 7.64206,4.10875 5.73154,6.29294 26.53493,5.73155 16.55779,5.51926 8.06662,7.42978 -3.60875,7.00522 -4.24559,1.27368 -4.67015,6.1561 -10.40169,8.70346 2.75963,6.79294 13.16133,2.54735 4.88242,3.39647 2.54736,7.2175 -6.88752,-0.087 -4.80334,5.10354 -7.205,1.80125 -7.205,7.205 2.40167,15.61084 -5.70396,5.70396 -0.60042,7.205 -5.40375,8.10563 -3.90271,0.30021 -13.80959,-15.61084 -13.50938,-7.80542 -10.50729,3.00209 -14.71022,-11.70813 -8.70604,3.6025 z"
       id="13"
       class="feoda" />
    <path
       style="fill:none;stroke:#000000;stroke-width:1.0015748;stroke-linecap:butt;stroke-linejoin:miter;stroke-opacity:0.01176471;stroke-miterlimit:4;stroke-dasharray:none"
       d="m 1131.1308,460.72176 -7.7481,-10.72011 -0.2123,-9.34029 6.0499,-6.47452 2.229,-12.20607 4.0333,-12.8429 -2.229,-20.90952 4.6702,-3.29034 0.3184,-8.59731 5.9438,-15.39026 -1.5921,-29.50684 5.4132,-7.00522 1.9105,-28.02088 -7.6421,-13.47974 -1.4859,-5.94383 -16.5578,3.92717 -13.0552,7.42978 -11.9938,-3.92717 -16.3455,1.91052 -4.1395,4.564 9.128,7.53592 -9.8709,5.30699 -7.6421,8.17276 -28.2332,-9.02188 -18.4683,-0.10614 -2.335,5.51927 8.5973,4.98856 1.2736,8.70346 9.3403,11.67537 -4.4578,6.47452 -4.8825,-0.5307 -2.8657,4.77629 7.7482,5.83768 -4.1395,7.85434 -8.9157,7.85434 -11.4631,1.48595 -21.54636,7.7482 9.65871,12.94905 0.74295,7.64205 -8.17273,7.7482 -11.25081,-2.54735 -11.88764,3.50261 -6.88752,-0.0116 -4.80334,5.10354 -7.205,1.80125 -7.205,7.205 2.40167,15.61084 -5.70396,5.70396 -0.60042,7.205 -5.40375,8.10563 8.44783,18.19171 19.62166,23.31175 -3.4524,35.42459 2.55177,2.85198 15.61084,3.6025 14.2599,23.11605 -1.35094,49.9847 9.60667,13.35928 -0.60042,8.85615 3.00209,9.30646 -4.50313,7.205 45.18133,27.61918 24.1668,2.55177 4.6532,-6.9048 -0.4503,-11.25781 5.1036,-4.80334 -0.9006,-9.75677 -8.2558,-11.55803 3.1522,-6.90479 3.6025,-14.56011 6.7547,-7.65531 -3.0021,-23.71647 4.2029,-6.60458 -0.7505,-8.85615 18.3127,-12.15844 1.2009,-11.70813 6.3043,-3.75261 5.8541,-25.36761 -1.6511,-10.05698 6.9047,-7.50521 8.556,-1.80125 1.8012,-12.30855 7.0549,-8.70604 z"
       id="14"
       class="feoda" />
    <path
       style="fill:none;stroke:#000000;stroke-width:1.0015748;stroke-linecap:butt;stroke-linejoin:miter;stroke-opacity:0.01176471;stroke-miterlimit:4;stroke-dasharray:none"
       d="m 1098.6127,555.9113 1.2009,-11.70813 6.3043,-3.75261 5.8541,-25.36761 -1.6511,-10.05698 6.9047,-7.50521 8.556,-1.80125 1.8012,-12.30855 7.0549,-8.70604 -3.5069,-13.90772 13.7982,8.41574 32.691,5.83769 h 22.0771 l 12.0999,-3.1842 9.4465,3.29033 21.334,-12.63062 5.2009,-0.5307 37.4673,-21.97092 4.9886,-6.04996 -1.9105,-26.42879 17.1946,-24.41213 32.691,-36.6182 14.0105,3.39647 18.4683,9.55257 14.435,35.23839 16.1332,18.68059 -1.9105,35.87522 9.3403,8.91573 -0.2123,11.67537 -3.3965,3.60875 6.1561,8.06662 0.8492,9.97713 15.4963,18.25603 13.5859,0.42456 1.6983,3.60875 11.2508,2.75963 8.9157,10.82625 10.1894,0.84912 5.5193,5.30698 -1.486,10.61397 7.4298,9.97714 h 4.0333 l 25.4735,23.77529 1.4132,21.46612 -5.854,13.50938 -2.1015,30.32105 -32.5726,-0.45031 -4.0528,2.10145 -7.8054,-6.60458 -4.8034,3.30229 -18.6129,-3.30229 -11.7081,2.70187 -27.319,-23.11604 -19.8138,-1.50105 -32.7227,-31.82209 -18.0125,-10.20709 -18.6129,2.70188 -16.5115,-1.50104 -5.7039,5.10354 -19.5136,3.00209 -21.9152,17.71229 -45.0312,7.80542 -38.1265,-6.00417 z"
       id="15"
       class="feoda" />
    <path
       style="fill:none;stroke:#000000;stroke-width:1.0015748;stroke-linecap:butt;stroke-linejoin:miter;stroke-opacity:0.01176471;stroke-miterlimit:4;stroke-dasharray:none"
       d="m 1507.6467,643.27199 -32.5726,-0.45031 -4.0528,2.10145 -7.8054,-6.60458 -4.8034,3.30229 -18.6129,-3.30229 -11.7081,2.70187 -27.319,-23.11604 -19.8138,-1.50105 0.9803,23.40682 2.9719,12.3122 -10.1894,13.16133 -14.8596,3.39647 -19.1051,-1.27368 -9.3403,5.09471 5.9438,16.55779 -8.9157,5.94383 11.463,28.87 12.4184,15.92095 -0.2123,8.2789 8.8096,6.47452 14.435,5.09471 11.1447,21.86478 3.1842,11.56922 22.82,-1.37981 28.87,19.21128 2.3351,13.16133 12.5245,16.13323 -1.9105,17.19464 3.3964,2.54735 h 25.6858 l 24.8367,8.70345 20.3788,-0.63683 8.9158,5.30698 34.3892,7.42978 37.1489,-10.61397 22.2894,0.42456 4.4579,-3.82103 7.4297,-4.45787 1.2737,-15.07184 -3.821,-15.92095 -18.6806,-15.70868 -7.6421,-3.60875 -4.2456,-11.46309 -31.8419,-15.28411 -9.3403,-18.68059 -2.9719,-16.13324 3.1842,-13.58588 -8.0666,-10.82625 -11.0385,-7.64206 -6.3684,-15.28412 -9.128,-12.09992 -1.0614,-22.50162 -9.128,-11.25081 -11.6754,-1.48596 -7.8543,-10.82625 z"
       id="16"
       class="feoda" />
    <path
       style="fill:none;stroke:#000000;stroke-width:1.0015748;stroke-linecap:butt;stroke-linejoin:miter;stroke-opacity:0.01176471;stroke-miterlimit:4;stroke-dasharray:none"
       d="m 1352.1137,748.14809 0.2123,-8.2789 -12.4184,-15.92095 -11.463,-28.87 8.9157,-5.94383 -5.9438,-16.55779 9.3403,-5.09471 19.1051,1.27368 14.8596,-3.39647 10.1894,-13.16133 -2.9719,-12.3122 -0.9803,-23.40682 -32.7227,-31.89753 -18.0125,-10.20709 -18.6129,2.70188 -16.5115,-1.50104 -5.7039,5.10354 -19.5136,3.00209 -21.9152,17.71229 -45.0312,7.80542 -38.1265,-6.00417 -66.196,-47.28286 -18.3127,12.15844 0.7505,8.85615 -4.2029,6.60458 3.0021,23.71647 -6.7547,7.65531 -6.7547,21.4649 8.2558,11.55803 0.9006,9.75677 -5.1036,4.80334 0.4503,11.25781 7.1115,4.59576 11.463,0.84912 45.0033,23.35074 43.2964,27.26796 29.7207,14.41 49.8346,1.20084 5.1035,-4.20292 h 13.2092 l 6.0042,7.80542 8.4058,-14.1098 10.5073,-5.10354 2.7019,-8.40584 7.205,7.50521 15.6108,7.50521 13.5094,2.40167 6.9583,7.24306 z"
       id="17"
       class="feoda" />
    <path
       style="fill:none;stroke:#000000;stroke-width:1.0015748;stroke-linecap:butt;stroke-linejoin:miter;stroke-opacity:0.01176471;stroke-miterlimit:4;stroke-dasharray:none"
       d="m 1177.7176,729.88212 -43.2964,-27.26796 -45.0033,-23.35074 -11.463,-0.84912 -7.1115,-4.6712 -4.6532,6.9048 -24.1668,-2.55177 -45.18133,-27.61918 -1.88846,10.34886 5.09469,47.33831 8.7035,53.06985 8.7034,6.58066 25.6858,0.63684 22.0771,-1.48595 21.8648,5.51926 28.6577,1.69824 12.0999,2.33507 14.8596,-6.58066 22.077,-19.74199 z"
       id="18"
       class="feoda" />
    <path
       style="fill:none;stroke:#000000;stroke-width:1.0015748;stroke-linecap:butt;stroke-linejoin:miter;stroke-opacity:0.01176471;stroke-miterlimit:4;stroke-dasharray:none"
       d="m 1008.7518,761.30941 -8.75754,-53.04269 -5.04065,-47.36547 1.88846,-10.4243 4.50313,-7.205 -3.00209,-9.30646 0.60042,-8.85615 -9.60667,-13.35928 1.35094,-49.9847 -14.2599,-23.11605 -15.61084,-3.6025 -2.55177,-2.85198 -2.58338,6.67646 -19.95426,22.1832 7.7482,28.23316 9.87099,7.7482 -0.5307,4.98856 -10.50783,0.84912 -10.72011,9.87099 2.54735,15.60254 -11.56922,13.47974 -9.12802,5.94383 -6.6868,14.85956 14.11658,43.51728 4.77629,34.17698 0.31842,27.59632 30.24981,-8.49117 z"
       id="19"
       class="feoda" />
    <path
       style="fill:none;stroke:#000000;stroke-width:1.0015748;stroke-linecap:butt;stroke-linejoin:miter;stroke-opacity:0.01176471;stroke-miterlimit:4;stroke-dasharray:none"
       d="m 906.75151,662.63019 6.6868,-14.85956 9.12802,-5.94383 11.56922,-13.47974 -2.54735,-15.60254 10.72011,-9.87099 10.50783,-0.84912 0.5307,-4.98856 -9.87099,-7.7482 -7.7482,-28.23316 19.95426,-22.1832 2.58338,-6.67646 3.4524,-35.42459 -19.62166,-23.31175 -8.44783,-18.19171 -3.90271,0.22481 -13.80959,-15.61084 -13.50938,-7.80542 -10.50729,3.00209 -14.71022,-11.70813 -8.70604,3.6025 -19.66365,1.2763 -15.91105,-2.4771 -45.15937,0.34923 -8.70346,12.73677 -12.94904,-2.97192 -8.70346,6.36839 -45.00323,-2.1228 -41.60677,19.74199 -3.82103,-2.75964 -8.27889,7.2175 -7.85434,-0.63683 -7.42978,7.64206 -29.29456,-9.12802 -8.70346,3.18419 -16.56206,-1.86933 -1.65114,10.88217 12.00833,6.90479 v 6.45448 l -1.80125,6.15428 5.55386,10.20708 7.205,4.65323 -0.75052,5.25365 -4.05281,4.95344 0.60041,11.40792 10.06415,6.24873 21.97092,-0.53069 14.64728,8.17275 10.40169,13.58589 -0.74297,21.75864 19.42356,12.09992 3.71489,9.12802 10.72011,15.49639 -2.97191,13.26747 14.54294,21.98164 10.20709,-0.3002 1.05073,-2.40167 -3.3023,-7.35511 10.20709,-17.8624 -1.35094,-8.70604 6.00417,-10.5073 21.91521,-13.95969 10.20709,8.55594 6.60459,-1.80125 5.40375,3.90271 9.15635,-0.60042 8.10563,-4.35302 14.71021,8.25573 22.06532,18.31272 14.56011,-7.20501 22.81584,-5.55385 14.71022,7.80542 2.25156,9.90687 9.60667,24.46699 5.40375,6.45448 z"
       id="20"
       class="feoda" />
    <path
       style="fill:none;stroke:#000000;stroke-width:1.0015748;stroke-linecap:butt;stroke-linejoin:miter;stroke-opacity:0.01176471;stroke-miterlimit:4;stroke-dasharray:none"
       d="m 925.64438,740.39989 -4.77629,-34.17698 -14.11658,-43.51728 -8.67801,-3.97291 -5.40375,-6.45448 -9.60667,-24.46699 -2.25156,-9.90687 -14.71022,-7.80542 -22.81584,5.55385 -14.56011,7.20501 -22.06532,-18.31272 -14.71021,-8.25573 -8.10563,4.35302 -9.15635,0.60042 -5.40375,-3.90271 -6.60459,1.80125 -10.20709,-8.55594 -21.91521,13.95969 -6.00417,10.5073 1.35094,8.70604 -10.20709,17.8624 3.3023,7.35511 -1.05073,2.40167 -10.20709,0.3002 -14.54294,-21.98164 2.97191,-13.26747 -10.72011,-15.49639 -3.71489,-9.12802 -19.42356,-12.09992 0.74297,-21.75864 -10.40169,-13.58589 -14.64728,-8.17275 -21.97092,0.53069 -10.06415,-6.32417 -15.76094,9.90688 -6.30438,12.75886 -25.66782,12.30854 -4.20291,9.00625 -11.10772,10.05699 -8.19509,11.86173 -32.05419,18.68059 -11.46309,10.82625 -8.70346,14.435 -12.09992,5.94382 -0.42456,6.58066 -7.85434,11.67537 13.16132,5.09471 -1.06139,5.94382 -9.55258,4.03331 25.89809,8.49117 18.04375,-4.67014 11.88765,3.18419 8.06662,-8.06662 21.22794,0.63684 5.51926,10.82625 19.10515,12.94904 7.42978,-4.45786 32.26647,-0.21228 8.2789,-4.45787 -2.97192,17.61919 2.1228,13.16132 3.82103,12.52449 4.45787,-1.69824 5.30698,9.12802 28.23316,13.16132 12.09993,14.64728 13.58588,0.21228 12.73677,-3.39647 9.76485,-17.83147 8.70346,-4.88243 7.2175,1.27368 4.88242,-8.06662 11.25081,-0.42456 17.61919,-12.3122 12.31221,4.03331 24.62441,1.27367 21.01566,-4.67014 21.6525,0.63683 13.58588,6.79295 29.9314,3.60875 h 24.41213 z"
       id="21"
       class="feoda" />
    <path
       style="fill:none;stroke:#000000;stroke-width:1.0015748;stroke-linecap:butt;stroke-linejoin:miter;stroke-opacity:0.01176471;stroke-miterlimit:4;stroke-dasharray:none"
       d="m 464.67963,679.58184 9.55258,-4.03331 1.06139,-5.94382 -13.16132,-5.09471 7.85434,-11.67537 0.42456,-6.58066 12.09992,-5.94382 8.70346,-14.435 11.46309,-10.82625 32.05419,-18.68059 8.19509,-11.93717 -74.30158,1.05073 -1.20083,-15.01042 -10.80751,-6.60459 -12.00833,-0.30021 -31.83136,-9.3051 -2.75964,-4.88243 -7.53591,-4.03331 -35.87522,2.22893 -12.20607,-3.39647 -11.67537,3.82103 -0.74298,11.67537 -9.34029,8.17276 -18.36217,5.94382 -5.6254,11.46309 2.97191,5.20085 -3.50261,7.42977 -6.58066,4.88243 -2.97192,21.75864 -11.03853,12.63063 -23.88143,2.12279 -29.50684,17.30077 -0.5307,6.36838 30.88666,15.81482 1.06139,15.92096 12.84291,8.27889 0.31842,22.92618 -2.44121,14.54114 6.79294,14.11658 0.10614,7.85434 -2.75964,6.04996 4.56401,3.39647 -1.0614,15.28412 -7.74819,12.63063 0.84911,9.65871 3.82103,9.87099 -4.564,10.29555 -0.63684,7.00522 -2.75964,2.54736 -4.35172,19.63584 1.27367,7.96048 -2.44121,7.53592 1.16754,26.42879 -6.15611,4.45786 0.74298,4.56401 9.44644,0.5307 26.7472,-11.88765 19.42357,-0.74297 0.84912,-7.11137 7.32363,-5.83768 18.04376,-4.03331 5.73154,-11.46309 9.44643,-5.0947 5.30699,-8.06662 -1.48596,-7.7482 -6.79294,-6.79294 -1.59209,-15.07184 1.27367,-8.59731 5.20085,-3.39647 9.44643,-0.63684 1.48596,-5.51927 16.98235,-9.87099 12.63063,-17.51305 7.53591,-6.1561 7.42978,-9.55258 4.03331,2.1228 15.70868,-15.17798 7.7482,-4.98857 10.82625,-0.74298 4.67015,-9.44643 6.1561,-4.67015 3.71489,-9.87099 z"
       id="22"
       class="feoda" />
    <path
       style="fill:none;stroke:#000000;stroke-width:1.0015748;stroke-linecap:butt;stroke-linejoin:miter;stroke-opacity:0.01176471;stroke-miterlimit:4;stroke-dasharray:none"
       d="M 675.47309,772.34794 663.37316,757.70066 635.14,744.53934 l -5.30698,-9.12802 -4.45787,1.69824 -5.94383,-25.68581 2.97192,-17.61919 -8.2789,4.45787 -32.26647,0.21228 -7.42978,4.45786 -19.10515,-12.94904 -5.51926,-10.82625 -21.22794,-0.63684 -8.06662,8.06662 -11.88765,-3.18419 -18.04375,4.67014 -25.89809,-8.41573 5.73155,42.805 -3.71489,9.87099 -6.1561,4.67015 -4.67015,9.44643 -10.82625,0.74298 -7.7482,4.98857 -15.70868,15.17798 -4.03331,-2.1228 -7.42978,9.55258 -7.53591,6.1561 -12.63063,17.51305 -16.98235,9.87099 -1.48596,5.51927 -9.44643,0.63684 -5.20085,3.39647 -1.27367,8.59731 1.59209,15.07184 6.79294,6.79294 1.48596,7.7482 -5.30699,8.06662 -9.44643,5.0947 -5.73154,11.46309 23.66915,20.19725 15.28412,20.16654 0.74298,7.64206 9.76485,2.22893 3.07805,4.77629 0.10614,5.20085 6.36838,4.98856 h 8.38504 l 13.16132,12.94905 8.06662,-0.10614 5.20085,5.83768 0.84911,10.82625 12.20607,0.31842 15.70868,8.17276 11.03853,0.95525 16.34551,2.1228 3.39647,8.06662 39.16555,2.44121 18.36217,-11.35695 6.47452,-2.75963 3.07805,-6.79294 17.72534,-6.89908 13.58588,1.91051 8.17276,1.91051 13.3736,-5.30698 -2.2361,-9.04049 -14.18485,-7.88047 -1.95136,-6.00416 8.18068,-8.55595 -0.63462,-5.98625 -4.72322,-9.55257 0.47946,-11.40488 4.27797,-6.64211 -3.00209,-8.96873 5.40375,-6.75469 7.20501,-2.85198 0.45031,-30.62126 6.15427,-8.70604 4.80334,-0.45032 5.40375,-8.25573 10.35719,-4.80333 9.00625,-11.85823 0.30021,-8.10563 6.45448,-2.70188 10.20709,-23.26615 z"
       id="23"
       class="feoda" />
    <path
       style="fill:none;stroke:#000000;stroke-width:1.0015748;stroke-linecap:butt;stroke-linejoin:miter;stroke-opacity:0.01176471;stroke-miterlimit:4;stroke-dasharray:none"
       d="m 618.26379,968.28184 -2.2361,-9.04049 -14.18485,-7.88047 -1.95136,-6.00416 8.18068,-8.55595 -0.63462,-5.98625 -4.72322,-9.55257 0.47946,-11.40488 4.27797,-6.64211 -3.00209,-8.96873 5.40375,-6.75469 7.20501,-2.85198 0.45031,-30.62126 6.15427,-8.70604 4.80334,-0.45032 5.40375,-8.25573 10.35719,-4.80333 9.00625,-11.85823 0.30021,-8.10563 6.45448,-2.70188 15.46487,-36.71376 13.58588,0.13684 12.73677,-3.39647 9.76485,-17.83147 8.70346,-4.88243 7.2175,1.27368 4.88242,-8.06662 11.25081,-0.42456 17.61919,-12.3122 12.31221,4.03331 24.62441,1.27367 21.01566,-4.67014 21.6525,0.63683 13.58588,6.79295 29.9314,3.60875 h 24.41213 l 16.87622,1.87981 0.31842,27.52088 -8.49118,44.18483 -11.46308,34.81382 -20.37883,32.69103 -33.11559,39.05941 -9.23415,19.42357 6.36838,3.50261 9.871,0.5307 -4.45787,5.73154 -8.2789,1.91052 -5.6254,-2.22894 -15.4964,0.63684 -23.03232,6.47452 -16.87621,1.37982 -12.09993,8.2789 -20.48496,4.88242 -10.50783,-2.44121 -21.6525,9.23415 -21.75864,0.5307 -19.95427,12.09993 -0.74297,-7.2175 -5.73155,-12.41835 -8.49118,0.74298 -15.70867,5.73155 -12.52449,-1.37982 -11.25081,-6.47452 z"
       id="24"
       class="feoda" />
    <path
       style="fill:none;stroke:#000000;stroke-width:1.0015748;stroke-linecap:butt;stroke-linejoin:miter;stroke-opacity:0.01176471;stroke-miterlimit:4;stroke-dasharray:none"
       d="m 885.62971,879.76133 20.37883,-32.69103 11.46308,-34.81382 8.49118,-44.18483 30.24981,-8.56661 52.53919,1.87981 8.7034,6.50522 25.6858,0.63684 22.0771,-1.48595 21.8648,5.51926 28.6577,1.69824 12.0999,2.33507 14.8596,-6.58066 22.077,-19.74199 12.9405,-20.31332 29.7207,14.33456 49.8346,1.20084 5.1035,-4.20292 h 13.2092 l 6.0042,7.80542 1.427,39.31028 -13.1613,36.51206 -3.1842,21.86478 -6.3684,12.94904 -53.4944,55.82949 -14.8596,26.95949 -9.7648,7.85433 -2.3351,8.2789 -9.9772,9.55258 -8.0666,2.12279 -0.8491,16.0271 -5.307,7.53591 -27.2779,-9.76485 0.9553,-7.42978 -11.8877,-18.14989 -18.5744,-27.06562 -3.6088,-14.9657 -17.0885,-9.3403 -13.7981,-1.06139 -80.1355,-40.54537 -27.38404,-1.91052 -48.93041,13.69203 z"
       id="25"
       class="feoda" />
    <path
       style="fill:none;stroke:#000000;stroke-width:1.0015748;stroke-linecap:butt;stroke-linejoin:miter;stroke-opacity:0.01176471;stroke-miterlimit:4;stroke-dasharray:none"
       d="m 1266.6713,846.85802 3.1842,-21.86478 13.1613,-36.51206 -1.427,-39.31028 8.4058,-14.18524 10.5073,-5.10354 2.7019,-8.40584 7.205,7.50521 15.6108,7.50521 13.5094,2.40167 6.9583,7.24306 5.6254,2.0921 8.8096,6.39908 14.435,5.09471 11.1447,21.86478 3.1842,11.56922 22.82,-1.37981 28.87,19.21128 2.3351,13.16133 12.5245,16.13323 -1.9105,17.19464 -5.0701,-1.65282 -11.483,7.65531 -9.2314,34.29882 -0.3753,19.28839 -19.4385,1.80125 -18.763,-1.57609 -17.7123,-14.63517 -46.4572,-21.31479 -20.8645,-4.42808 z"
       id="26"
       class="feoda" />
    <path
       style="fill:none;stroke:#000000;stroke-width:1.0015748;stroke-linecap:butt;stroke-linejoin:miter;stroke-opacity:0.01176471;stroke-miterlimit:4;stroke-dasharray:none"
       d="m 1155.6491,993.96765 5.307,-7.53591 0.8491,-16.0271 8.0666,-2.12279 9.9772,-9.55258 2.3351,-8.2789 9.7648,-7.85433 14.8596,-26.95949 53.4944,-55.82949 6.3684,-12.8736 38.2597,30.05079 20.8645,4.42808 46.4572,21.31479 17.7123,14.63517 18.763,1.57609 19.4385,-1.80125 5.6289,5.62852 -2.7018,15.16052 -9.0063,21.91522 3.9778,17.03683 -6.1543,11.85823 -5.5539,1.12578 -2.3266,3.90271 -23.4162,5.85407 -14.335,7.20499 -2.4016,8.4058 -10.3572,-2.8519 -21.615,9.4565 -58.991,0.3002 -4.8784,2.777 -18.4628,0.9756 -12.3836,9.9069 -4.1279,-0.2251 -19.4385,12.0834 -27.9193,0.3752 -13.0591,3.8277 -18.3878,1.2008 -9.3064,9.3815 -20.4893,-28.2196 -0.075,-6.9798 29.0451,-18.1626 z"
       id="27"
       class="feoda" />
    <path
       style="fill:none;stroke:#000000;stroke-width:1.0015748;stroke-linecap:butt;stroke-linejoin:miter;stroke-opacity:0.01176471;stroke-miterlimit:4;stroke-dasharray:none"
       d="m 859.51935,942.27762 -9.871,-0.5307 -6.36838,-3.50261 9.23415,-19.42357 33.11559,-38.98397 22.28934,-2.41051 48.93041,-13.69203 27.38404,1.91052 80.1355,40.54537 13.7981,1.06139 17.0885,9.3403 3.6088,14.9657 30.4621,45.21551 -0.9553,7.42978 27.2779,9.84029 5.7822,15.10791 -29.0451,18.1626 -8.8974,5.0012 -9.7649,1.1675 -3.2903,3.0781 -5.8377,-0.6369 0.4246,-4.6701 -8.5973,-4.8824 -5.7316,-0.5307 -5.6254,-9.2342 1.486,-3.5026 -42.8805,-29.29456 -31.3112,-8.59731 -25.68579,-14.54114 -3.18419,-11.35695 -13.79816,-9.02188 -17.51305,-3.18419 -10.40169,-12.09993 -14.32886,1.48596 -5.73155,12.84291 -9.12801,1.48595 -6.6868,-3.71489 -23.88144,1.69824 -8.06661,9.23415 z"
       id="28"
       class="feoda" />
    <path
       style="fill:none;stroke:#000000;stroke-width:1.0015748;stroke-linecap:butt;stroke-linejoin:miter;stroke-opacity:0.01176471;stroke-miterlimit:4;stroke-dasharray:none"
       d="m 679.29412,988.76681 19.95427,-12.09993 21.75864,-0.5307 21.6525,-9.23415 10.50783,2.44121 20.48496,-4.88242 12.09993,-8.2789 16.87621,-1.37982 23.03232,-6.47452 15.4964,-0.63684 5.6254,2.22894 8.2789,-1.91052 4.45787,-5.6561 14.435,5.76224 8.06661,-9.23415 23.88144,-1.69824 6.6868,3.71489 9.12801,-1.48595 5.73155,-12.84291 14.32886,-1.48596 10.40169,12.09993 17.51305,3.18419 13.79816,9.02188 3.18419,11.35695 25.68579,14.54114 31.3112,8.59731 42.8805,29.29452 -1.486,3.5026 5.6254,9.2342 5.7316,0.5307 8.5973,4.8824 -0.4246,4.6701 5.8377,0.6369 3.2903,-3.0781 9.7649,-1.1675 8.8974,-5.0766 0.075,6.9798 20.4893,28.2196 -0.5917,13.2129 -10.5078,1.2737 -8.2789,12.8429 -5.7316,3.821 -3.7149,13.9043 -13.3736,9.9772 -26.7472,0.743 -10.4017,7.3236 -1.4087,7.0748 -8.5559,-7.0549 -21.7652,3.0021 12.6088,10.3572 -21.9152,5.7039 -10.2071,8.2558 27.319,2.2515 6.6045,-3.6025 4.9535,16.5115 -32.1223,0.6004 -40.07784,12.6088 -40.67824,13.059 -11.85824,13.3593 -11.85823,-12.3085 -25.96803,7.0548 -17.11188,8.1057 -30.02084,1.3509 -20.86449,10.5073 -13.35927,9.9069 -13.05907,0.7505 -11.40792,27.1689 -15.91104,-1.2009 -3.60251,-19.6636 -9.00625,-9.1564 2.85198,-5.5538 -17.11188,-13.9597 -20.41417,-33.1731 -24.46699,-42.4794 9.45657,-52.3864 22.36553,-54.0375 -12.00834,-23.8666 -15.91105,-1.6511 -7.3551,5.4037 z"
       id="29"
       class="feoda" />
    <path
       style="fill:none;stroke:#000000;stroke-width:1.0015748;stroke-linecap:butt;stroke-linejoin:miter;stroke-opacity:0.01176471;stroke-miterlimit:4;stroke-dasharray:none"
       d="m 439.63066,975.49934 12.20607,0.31842 15.70868,8.17276 27.38404,3.07805 3.39647,8.06662 39.16555,2.44121 18.36217,-11.35695 6.47452,-2.75963 3.07805,-6.79294 17.72534,-6.89908 13.58588,1.91051 8.17276,1.91051 13.3736,-5.23154 6.58066,-0.60613 11.25081,6.47452 12.52449,1.37982 15.70867,-5.73155 8.49118,-0.74298 5.73155,12.41835 0.74297,7.29294 22.44308,19.78335 7.3551,-5.4037 15.91105,1.6511 12.00834,23.8666 -22.36553,54.0375 -9.45657,52.3864 40.26546,68.1844 -3.37735,4.6158 3.87216,9.0342 -5.94382,5.7315 -12.09993,10.4017 -5.30699,7.8544 -8.91573,2.5473 -7.42978,15.0718 -24.19985,8.2789 -5.51927,5.7316 -12.73676,-6.5807 -6.79295,-6.5806 -45.42779,-14.8596 -21.01566,0.8491 -11.46309,-4.8824 -82.78897,2.7596 -22.07706,7.4298 -11.03853,2.5474 -4.67015,1.6982 -6.58066,-19.1052 -5.73154,-4.8824 -11.67537,1.2737 -14.22272,-10.1894 -21.44022,0.4245 -5.09471,-6.7929 -5.0947,-0.6368 -13.37361,-17.6192 -18.25603,-2.5474 -19.31742,-18.8928 -21.6525,-2.972 -1.27368,-23.9875 -1.48596,-16.1333 10.82625,-17.6192 -0.63683,-14.0104 8.49117,-14.8596 1.27368,-8.0666 19.74198,-18.4683 14.22273,-6.5807 6.36838,-11.0385 3.18419,-17.1946 11.46309,-1.6982 14.64728,1.6982 18.25603,-11.6754 2.97191,-7.2175 9.97713,-6.79292 z"
       id="30"
       class="feoda" />
    <path
       style="fill:none;stroke:#000000;stroke-width:1.0015748;stroke-linecap:butt;stroke-linejoin:miter;stroke-opacity:0.01176471;stroke-miterlimit:4;stroke-dasharray:none"
       d="m 458.52353,1255.0713 4.67015,-1.6982 11.03853,-2.5474 22.07706,-7.4298 82.78897,-2.7596 11.46309,4.8824 21.01566,-0.8491 45.42779,14.8596 6.79295,6.5806 12.73676,6.5807 0.58561,5.8972 -7.73036,9.9819 -9.15636,2.7769 -0.37526,15.3857 -15.01042,5.9291 -23.64141,0.6755 -10.13204,6.5295 -58.24043,-1.2758 -17.03683,-3.5275 -4.72828,-5.2536 -34.82418,0.6754 -18.16261,-17.4121 -15.53579,-2.4767 -0.0751,-11.2578 3.6025,-8.1807 z"
       id="31"
       class="feoda" />
    <path
       style="fill:none;stroke:#000000;stroke-width:1.0015748;stroke-linecap:butt;stroke-linejoin:miter;stroke-opacity:0.01176471;stroke-miterlimit:4;stroke-dasharray:none"
       d="m 462.54613,1290.6714 15.53579,2.4767 5.49058,5.1528 -9.02187,27.4902 5.73154,11.2508 1.37982,19.2113 0.74298,9.5525 -3.50261,0.1062 -4.13945,5.9438 -13.05519,4.6702 -7.74819,7.5359 -3.92717,0.2123 -7.53592,8.9157 -20.48497,-8.8096 -1.80437,-3.1842 -4.56401,-0.2123 -1.0614,-10.0832 -1.69823,-4.3518 2.44121,-3.5026 2.97191,-0.5307 -0.10614,-2.4412 7.85434,-8.9157 4.56401,-4.9886 -0.5307,-7.6421 -3.60875,-4.4578 3.60875,-8.1728 6.36838,-2.8658 1.80438,-12.7367 -7.53592,-7.5359 1.48596,-8.3851 9.65871,-1.6982 7.00522,-10.2956 13.47974,0.2123 z"
       id="32"
       class="feoda" />
    <path
       style="fill:none;stroke:#000000;stroke-width:1.0015748;stroke-linecap:butt;stroke-linejoin:miter;stroke-opacity:0.01176471;stroke-miterlimit:4;stroke-dasharray:none"
       d="m 430.71493,1302.8342 7.53592,7.5359 -1.80438,12.7367 -6.36838,2.8658 -3.60875,8.1728 3.60875,4.4578 0.5307,7.6421 -12.41835,13.9043 0.10614,2.4412 -2.97191,0.5307 -2.44121,3.5026 1.69823,4.3518 1.0614,10.0832 4.56401,0.2123 1.80437,3.1842 20.48497,8.8096 0.0108,9.3086 -1.50104,7.5052 -21.91522,17.7123 -4.20292,-1.8013 -3.90271,0.3002 -18.91313,26.1182 -13.20917,0.6004 -3.6025,8.706 -12.90896,3.3023 -6.60459,13.2092 -10.50729,9.0062 -18.01251,-12.9089 -4.20291,-9.3065 -31.22168,-20.1139 -41.12855,-1.2009 -27.91939,-25.8179 -4.80333,-12.909 -13.50938,-7.8054 h -11.26767 v -16.6108 l -8.91574,-8.9688 -0.21228,-11.9408 7.58899,0.053 2.17586,-29.613 4.56401,-4.7763 10.0302,-2.335 19.15822,-18.7868 14.435,-0.796 18.20296,-7.6951 5.36006,-6.1561 32.2134,-0.053 6.1561,-2.8658 31.84191,4.564 36.56513,1.8044 8.70346,6.1561 13.3736,-2.3881 16.23938,0.2122 z"
       id="33"
       class="feoda" />
    <path
       style="fill:none;stroke:#000000;stroke-width:1.0015748;stroke-linecap:butt;stroke-linejoin:miter;stroke-opacity:0.01176471;stroke-miterlimit:4;stroke-dasharray:none"
       d="m 184.04627,1359.725 0.21228,11.9408 8.91574,8.9688 v 16.6108 l -6.14444,2.9267 -26.71855,-0.6004 -29.42043,9.3064 -12.60875,13.2092 -5.40375,3.0021 -2.40167,6.0042 -11.107711,1.501 -11.107712,4.2029 -39.92772,-1.8012 -27.318967,-30.0209 -2.701876,-10.8075 10.507295,-10.2071 6.604585,-1.8012 21.01459,-21.615 54.337726,-3.9027 14.41,6.6046 28.82001,5.7039 z"
       id="34"
       class="feoda" />
    <path
       style="fill:none;stroke:#000000;stroke-width:1.0015748;stroke-linecap:butt;stroke-linejoin:miter;stroke-opacity:0.01176471;stroke-miterlimit:4;stroke-dasharray:none"
       d="m 345.23971,1487.3079 10.50729,-9.0062 6.60459,-13.2092 12.90896,-3.3023 3.6025,-8.706 13.20917,-0.6004 17.41207,-5.3291 40.52814,2.6268 7.43016,12.1585 0.075,20.4892 5.70396,9.6067 0.37526,10.8075 3.75261,6.6046 -1.80125,12.9089 -9.08131,0.4503 -12.15844,5.1036 -20.86449,4.1278 -15.38568,-0.075 -13.80958,-13.2842 -8.40584,-2.7019 -6.45448,-5.4788 -18.23766,-5.2537 z"
       id="35"
       class="feoda" />
    <path
       style="fill:none;stroke:#000000;stroke-width:1.0015748;stroke-linecap:butt;stroke-linejoin:miter;stroke-opacity:0.01176471;stroke-miterlimit:4;stroke-dasharray:none"
       d="m 450.01243,1449.8569 -40.52814,-2.6268 -17.41207,5.3291 18.91313,-26.1936 3.90271,-0.3002 4.20292,1.8013 16.21124,-13.1345 11.25781,3.6025 8.10563,7.205 12.00834,-0.3002 10.6574,2.5518 9.90687,0.1501 1.20084,1.2008 0.75052,4.2029 -9.15636,2.2516 -6.75469,5.5538 -12.60875,5.4038 -6.30438,-0.6004 z"
       id="36"
       class="feoda" />
    <path
       style="fill:none;stroke:#000000;stroke-width:1.0015748;stroke-linecap:butt;stroke-linejoin:miter;stroke-opacity:0.01176471;stroke-miterlimit:4;stroke-dasharray:none"
       d="m 488.43911,1429.2176 -1.20084,-1.2008 -9.90687,-0.1501 -10.6574,-2.5518 -12.00834,0.3002 -8.10563,-7.205 -11.25781,-3.6025 5.70398,-4.6532 1.50104,-7.5052 -0.0108,-9.3086 7.53592,-8.9911 3.92717,-0.2123 7.74819,-7.5359 13.05519,-4.6702 4.13945,-5.9438 3.50261,-0.1062 7.16443,2.0474 10.45476,7.589 3.98024,6.6338 7.11136,12.6837 7.19409,2.4851 8.10562,8.2557 0.90063,4.9535 -6.90479,3.6025 -4.95344,4.2029 -6.60459,-0.6004 -8.85615,3.1522 -3.90271,-0.3002 z"
       id="37"
       class="feoda" />
    <path
       style="fill:none;stroke:#000000;stroke-width:1.0015748;stroke-linecap:butt;stroke-linejoin:miter;stroke-opacity:0.01176471;stroke-miterlimit:4;stroke-dasharray:none"
       d="m 518.30985,1397.3955 -7.19409,-2.4851 -11.0916,-19.3175 -10.45476,-7.589 -7.16443,-2.0474 -2.1228,-28.8392 -5.73154,-11.2508 9.02187,-27.4902 12.67203,12.1839 34.82418,-0.6754 4.72828,5.2536 17.03683,3.5275 31.78369,0.8099 5.51926,16.4516 -8.70346,11.8877 -0.63683,4.8824 -18.94594,20.6972 -9.92406,6.7399 -15.23105,5.8908 -8.86267,3.6618 -5.57233,5.0947 z"
       id="38"
       class="feoda" />
    <path
       style="fill:none;stroke:#000000;stroke-width:1.0015748;stroke-linecap:butt;stroke-linejoin:miter;stroke-opacity:0.01176471;stroke-miterlimit:4;stroke-dasharray:none"
       d="m 527.3161,1410.6047 -0.90063,-4.9535 -8.10562,-8.1803 3.95058,-2.6136 5.57233,-5.0947 24.09372,-9.5526 9.92406,-6.7399 18.94594,-20.6972 0.63683,-4.8824 8.70346,-11.8877 -5.51926,-16.4516 26.45674,0.3905 10.13204,-6.5295 23.64141,-0.6755 15.01042,-5.9291 1.28611,15.7993 12.20607,23.3507 0.84912,4.9886 12.94904,19.4236 2.33508,14.7534 10.18941,6.1561 21.01566,21.3341 25.26125,2.4412 3.39647,7.5359 2.86577,16.8762 0.10614,17.9376 -3.07805,5.6254 3.18419,5.307 -3.71489,7.5359 -16.66393,0.2123 -33.22173,11.0385 -5.94382,-2.2289 -14.64728,6.3684 -17.93761,-2.8658 -12.20607,2.9719 -4.56401,-5.0947 -0.21228,-5.8377 -6.89908,-5.2008 -26.00423,0.3184 4.13945,-67.611 -11.03853,-8.8096 -23.35073,-5.7315 -6.47452,-5.5193 -4.45787,6.7929 -14.75342,2.229 -4.88243,5.4131 -7.32364,2.9719 -1.27367,2.4412 z"
       id="39"
       class="feoda" />
    <path
       style="fill:none;stroke:#000000;stroke-width:1.0015748;stroke-linecap:butt;stroke-linejoin:miter;stroke-opacity:0.01176471;stroke-miterlimit:4;stroke-dasharray:none"
       d="m 540.99409,1407.8063 1.27367,-2.4412 7.32364,-2.9719 4.88243,-5.4131 14.75342,-2.229 4.45787,-6.7929 6.47452,5.5193 16.98235,4.3824 -14.22272,32.2665 -9.12801,4.6702 -4.45787,7.0052 -11.03853,-4.4579 0.10614,-4.0333 -8.06662,-11.0385 -5.83768,-3.5026 -0.10614,-6.2623 z"
       id="40"
       class="feoda" />
    <path
       style="fill:none;stroke:#000000;stroke-width:1.0015748;stroke-linecap:butt;stroke-linejoin:miter;stroke-opacity:0.01176471;stroke-miterlimit:4;stroke-dasharray:none"
       d="m 488.43911,1429.2176 7.65531,-8.5559 3.90271,0.3002 8.85615,-3.1522 6.60459,0.6004 4.95344,-4.2029 6.90479,-3.5271 13.67799,-2.8738 3.39647,4.7763 0.10614,6.2623 5.83768,3.5026 8.06662,11.0385 -0.10614,4.0333 -2.70656,-0.1815 -10.77318,6.5276 -10.93239,2.6004 -10.18942,-0.5838 -11.35694,1.8044 -12.6837,-11.6223 -0.21228,-5.4131 z"
       id="41"
       class="feoda" />
    <path
       style="fill:none;stroke:#000000;stroke-width:1.0015748;stroke-linecap:butt;stroke-linejoin:miter;stroke-opacity:0.01176471;stroke-miterlimit:4;stroke-dasharray:none"
       d="m 489.18963,1433.4205 -0.75052,-4.2029 11.00128,1.4088 0.21228,5.4131 12.6837,11.6223 11.35694,-1.8044 10.18942,0.5838 10.93239,-2.6004 10.77318,-6.5276 2.70656,0.1061 11.03853,4.4579 3.46429,0.4742 11.55802,19.5135 7.80542,6.7547 -0.30021,9.4566 -16.06115,2.852 -4.80333,4.353 -8.70605,-1.0507 -5.10354,-12.0084 -10.35719,-6.1543 -11.85824,-2.5517 -2.10145,-1.9514 -9.00626,3.4524 -6.90479,-3.6025 h -12.00834 l -9.45656,-8.2557 -5.70396,-13.2092 z"
       id="42"
       class="feoda" />
    <path
       style="fill:none;stroke:#000000;stroke-width:1.0015748;stroke-linecap:butt;stroke-linejoin:miter;stroke-opacity:0.01176471;stroke-miterlimit:4;stroke-dasharray:none"
       d="m 465.54817,1522.4323 1.80125,-12.9089 -3.75261,-6.6046 -0.37526,-10.8075 -5.70396,-9.6067 -0.075,-20.4892 -7.43016,-12.0831 4.35302,-3.903 6.30438,0.6004 12.60875,-5.4038 6.75469,-5.5538 9.15636,-2.1762 0.60042,6.5292 5.70396,13.2092 9.45656,8.2557 h 12.00834 l 6.90479,3.6025 9.00626,-3.4524 2.10145,1.9514 11.85824,2.5517 10.35719,6.1543 5.10354,12.0084 -13.95969,2.1761 -15.16053,7.9555 -4.35302,-0.6004 -0.90062,6.7547 -6.00417,2.7019 -11.10771,16.3614 -8.70605,-2.2516 -12.00834,5.2536 z"
       id="43"
       class="feoda" />
    <path
       style="fill:none;stroke:#000000;stroke-width:1.0015748;stroke-linecap:butt;stroke-linejoin:miter;stroke-opacity:0.01176471;stroke-miterlimit:4;stroke-dasharray:none"
       d="m 591.86091,1478.1516 0.30021,-9.4566 -7.80542,-6.7547 -11.55802,-19.5135 -3.46429,-0.5496 4.45787,-7.0052 9.12801,-4.6702 14.22272,-32.2665 6.36838,1.2737 11.03853,8.8096 -4.13945,67.611 z"
       id="44"
       class="feoda" />
    <path
       style="fill:none;stroke:#000000;stroke-width:1.0015748;stroke-linecap:butt;stroke-linejoin:miter;stroke-opacity:0.01176471;stroke-miterlimit:4;stroke-dasharray:none"
       d="m 1124.1256,1107.6432 3.7149,-13.9043 5.7316,-3.821 8.2789,-12.8429 10.5078,-1.2737 0.5917,-13.2129 9.3064,-9.4569 18.3878,-1.2008 13.0591,-3.8277 27.9193,-0.3752 12.8339,12.0079 7.8055,12.909 18.9131,5.704 h 15.911 l 5.4038,7.205 -4.5031,13.5093 1.2008,16.8117 -15.6108,0.3002 -12.3086,5.704 -9.3064,-0.3002 -4.203,4.2029 -19.8137,1.2008 -0.9006,3.9027 -19.8138,1.8013 -18.3127,-3.9027 -31.8221,-2.7019 -9.0063,3.3023 z"
       id="45"
       class="feoda" />
    <path
       style="fill:none;stroke:#000000;stroke-width:1.0015748;stroke-linecap:butt;stroke-linejoin:miter;stroke-opacity:0.01176471;stroke-miterlimit:4;stroke-dasharray:none"
       d="m 1277.0866,1078.3487 h -15.911 l -18.9131,-5.704 -7.8055,-12.909 -12.8339,-12.0079 19.4385,-12.0834 4.1279,0.2251 12.3836,-9.9069 18.4628,-0.9756 4.8784,-2.777 31.9808,-0.1377 -17.796,47.5703 z"
       id="46"
       class="feoda" />
    <path
       style="fill:none;stroke:#000000;stroke-width:1.0015748;stroke-linecap:butt;stroke-linejoin:miter;stroke-opacity:0.01176471;stroke-miterlimit:4;stroke-dasharray:none"
       d="m 1279.1881,1115.9501 -1.2008,-16.8117 4.5031,-13.5093 -5.4038,-7.205 18.0125,-8.7061 17.796,-47.5703 27.0102,-0.2379 21.615,-9.4565 10.3572,2.8519 -6.9799,24.1665 -4.0528,4.353 2.5518,4.6532 3.3023,6.3044 25.0674,10.9576 2.4016,9.0063 9.4566,7.3551 0.6004,11.1077 -3.9027,4.8033 -19.8138,5.1036 -79.7053,11.2578 -14.41,0.7505 z"
       id="47"
       class="feoda" />
    <path
       style="fill:none;stroke:#000000;stroke-width:1.0015748;stroke-linecap:butt;stroke-linejoin:miter;stroke-opacity:0.01176471;stroke-miterlimit:4;stroke-dasharray:none"
       d="m 1400.3222,1098.0877 3.9027,-4.8033 -0.6004,-11.1077 -9.4566,-7.3551 -2.4016,-9.0063 29.8689,0.04 15.4964,3.3965 32.2665,-0.2123 18.4683,9.5526 14.0105,-1.6982 -1.2737,4.6701 -5.9438,4.8824 v 15.7087 l -13.3737,13.7982 -16.3455,5.7315 -27.8086,-1.4859 -21.8648,-18.6806 z"
       id="48"
       class="feoda" />
    <path
       style="fill:none;stroke:#000000;stroke-width:1.0015748;stroke-linecap:butt;stroke-linejoin:miter;stroke-opacity:0.01176471;stroke-miterlimit:4;stroke-dasharray:none"
       d="m 1589.9728,1080.5022 2.5474,-2.5473 8.0666,-0.4246 21.8648,-9.9771 47.3383,-10.614 10.1894,2.9719 4.2456,12.3122 1.4859,14.2227 13.5859,9.5526 12.3122,19.5297 1.9105,14.6473 -14.8595,9.9771 -17.6192,-14.435 -29.2946,-4.4578 -9.9771,2.1228 -30.356,-11.6754 -6.7929,-17.8315 -2.3351,-7.4298 z"
       id="49"
       class="feoda" />
    <path
       style="fill:none;stroke:#000000;stroke-width:1.0015748;stroke-linecap:butt;stroke-linejoin:miter;stroke-opacity:0.01176471;stroke-miterlimit:4;stroke-dasharray:none"
       d="m 1286.8378,1135.801 -0.2123,-20.5911 14.1776,-0.7608 79.7053,-11.2578 19.8138,-5.0282 14.9446,3.4306 21.8648,18.6806 27.8086,1.4859 16.3455,-5.7315 13.3737,-13.7982 v -15.7087 l 5.9438,-4.8824 1.2737,-4.6701 25.5836,2.28 4.2029,1.501 58.3094,-0.1727 12.3122,5.9438 9.128,25.2613 30.356,11.6754 9.9771,-2.1228 29.2946,4.4578 17.6192,14.435 -3.9833,12.8725 -16.5115,6.6045 -3.9027,16.8117 -12.3086,10.5073 -8.1056,3.0021 -7.205,7.5052 -23.4162,16.5115 -6.9048,14.1098 -17.7123,13.5093 -30.9215,2.7019 -0.3002,-8.1056 -5.1036,-3.3023 -17.412,2.7019 -4.5032,5.4037 -5.7039,-4.2029 -1.5011,-9.6067 -30.9214,-13.5093 -25.2175,-18.3127 6.6045,-7.8055 -0.6004,-6.6046 -15.0104,3.0021 -15.911,9.9069 -22.5157,-17.7123 7.5052,-9.9069 -15.3106,-11.1077 -19.2133,15.0104 -6.3044,-4.5031 -21.3148,11.4079 -12.909,-6.9048 -7.5052,-5.4037 2.4017,-6.0042 -37.2259,-6.6046 -12.3085,1.5011 -12.909,-1.2009 -1.2008,-7.8054 z"
       id="50"
       class="feoda" />
    <path
       style="fill:none;stroke:#000000;stroke-width:1.0015748;stroke-linecap:butt;stroke-linejoin:miter;stroke-opacity:0.01176471;stroke-miterlimit:4;stroke-dasharray:none"
       d="m 1356.9421,1158.8799 -2.4017,6.0042 20.4142,12.3085 21.3148,-11.4079 6.3044,4.5031 19.2133,-15.0104 15.3106,11.1077 -7.5052,9.9069 22.5157,17.7123 15.911,-9.9069 15.0104,-3.0021 0.6004,6.6046 -6.6045,7.8055 8.0813,5.8899 -13.9043,17.7254 -12.3122,1.9105 -18.2561,-5.0947 -12.206,12.4183 h -4.6702 l -4.564,10.614 -29.2945,-1.2737 -0.6369,-6.4745 -9.3403,2.9719 -10.9324,20.485 -5.8376,5.0947 -31.6297,13.2674 -22.3955,-4.564 -15.0718,12.5245 -11.6754,-5.5192 -26.5349,-4.7763 0.2123,-16.1333 -7.4298,-4.7763 -21.9709,-0.3184 -3.0781,-18.5744 -3.6087,-8.8096 16.0271,-14.3289 18.0437,-7.1113 7.9605,-9.1281 5.6254,-0.8491 3.9272,-5.9438 5.0947,3.5026 43.0927,-22.1832 1.6982,-6.1561 10.7202,-5.4131 z"
       id="51"
       class="feoda" />
    <path
       style="fill:none;stroke:#000000;stroke-width:1.0015748;stroke-linecap:butt;stroke-linejoin:miter;stroke-opacity:0.01176471;stroke-miterlimit:4;stroke-dasharray:none"
       d="m 1226.6566,1249.552 21.9709,0.3184 7.4298,4.7763 -0.2123,16.1333 26.5349,4.7763 11.6754,5.5192 1.0438,12.8228 27.0188,7.5052 2.7019,15.9111 -9.0063,12.6087 -11.4079,10.8075 -10.2071,2.1015 v 8.4058 l -16.2112,8.7061 -25.5177,-4.203 -18.0126,3.6026 -6.0041,7.5052 -4.5031,-6.0042 -22.5157,16.8117 -11.4079,-7.5052 -12.909,15.0104 -6.6045,-4.8034 -10.8076,20.7144 -13.8095,4.5031 -15.3107,-3.9027 2.1015,-9.0062 24.0167,-37.5261 -9.6067,-11.7081 -13.5094,-5.704 -5.4037,0.3003 -2.7019,-6.9048 -6.3044,-2.4017 -0.3002,-6.3044 8.1056,-12.6087 -0.3002,-19.5136 -8.1056,-4.8033 11.1077,-7.5052 2.7019,-13.5094 11.1077,2.4017 6.0042,12.9089 18.3127,1.8013 12.6087,-8.4059 12.909,-4.8033 13.8096,-19.8138 z"
       id="52"
       class="feoda" />
    <path
       style="fill:none;stroke:#000000;stroke-width:1.0015748;stroke-linecap:butt;stroke-linejoin:miter;stroke-opacity:0.01176471;stroke-miterlimit:4;stroke-dasharray:none"
       d="m 1322.1179,1301.4789 -27.0188,-7.5052 -1.0438,-12.8228 15.0718,-12.5999 22.3955,4.564 31.6297,-13.2674 5.8376,-5.0947 10.9324,-20.485 9.3403,-2.9719 0.6369,6.4745 29.2945,1.2737 4.564,-10.614 h 4.6702 l 12.206,-12.4183 18.2561,5.0947 12.3122,-1.9105 13.9043,-17.7254 17.1362,12.3474 30.9214,13.5093 1.5011,9.6067 5.7039,4.2029 4.5032,-5.4037 17.412,-2.7019 5.1036,3.3023 0.3002,8.1056 -25.2175,2.3263 -10.9576,5.8541 -30.9215,4.2029 -9.3064,6.1542 -2.1015,7.9556 -24.9173,-4.6533 -9.4566,12.6088 -10.9576,4.0528 -17.5622,-2.4017 -43.6803,3.1522 -7.5052,6.6046 -6.7547,-2.4017 -7.8054,3.4524 -10.8075,-6.9048 -13.3593,9.3065 -6.4545,-3.3023 z"
       id="53"
       class="feoda" />
    <path
       style="fill:none;stroke:#000000;stroke-width:1.0015748;stroke-linecap:butt;stroke-linejoin:miter;stroke-opacity:0.01176471;stroke-miterlimit:4;stroke-dasharray:none"
       d="m 1294.1985,1351.3135 v -8.4058 l 10.2071,-2.1015 11.4079,-10.8075 9.0063,-12.6087 -2.7019,-15.8357 7.8054,-11.033 6.4545,3.3023 13.3593,-9.3065 10.8075,6.9048 7.8054,-3.4524 6.7547,2.4017 7.5052,-6.6046 43.6803,-3.1522 17.5622,2.4017 10.9576,-4.0528 9.4566,-12.6088 24.9173,4.6533 2.1015,-7.9556 9.3064,-6.1542 30.9215,-4.2029 10.9576,-5.8541 56.139,-5.1036 17.7123,-13.5093 17.4121,-4.2783 7.5836,-5.2272 17.2212,-0.7695 24.9428,-10.1894 h 33.3279 l 5.8376,2.8658 -0.8491,7.3236 -9.128,12.1 -21.296,-0.3994 -13.2092,10.6574 -11.4079,1.3509 -6.0042,10.057 -14.2599,0.4503 -7.205,4.8034 -13.5094,1.9513 -12.1584,7.9556 -14.7102,2.1014 -5.4038,7.6553 -9.1563,2.1015 -5.704,4.353 -7.205,0.4503 -6.0042,9.7568 -11.1077,-7.8054 -19.6636,11.558 -4.0528,-0.7505 -8.8562,13.059 -6.7547,-3.9027 -8.2557,8.8562 -11.2578,-10.9576 -12.6088,25.6678 -13.3593,7.5052 -12.6087,-1.0507 -20.8645,19.2133 -9.9069,-0.1501 -19.9638,13.6595 -5.8541,-2.2516 -15.911,16.0612 -10.5073,-13.5094 -15.3107,18.1626 -12.9089,-5.5538 -28.0695,-3.3023 -6.6046,-15.4608 z"
       id="54"
       class="feoda" />
    <path
       style="fill:none;stroke:#000000;stroke-width:1.0015748;stroke-linecap:butt;stroke-linejoin:miter;stroke-opacity:0.01176471;stroke-miterlimit:4;stroke-dasharray:none"
       d="m 1384.4112,1382.0849 15.911,-16.0612 5.8541,2.2516 19.9638,-13.6595 9.9069,0.1501 20.8645,-19.2133 12.6087,1.0507 13.3593,-7.5052 12.6088,-25.6678 11.2578,10.9576 8.2557,-8.8562 6.7547,3.9027 8.8562,-13.059 4.0528,0.7505 19.6636,-11.558 11.1077,7.8054 6.0042,-9.7568 7.205,-0.4503 5.704,-4.353 9.1563,-2.1015 5.4038,-7.6553 14.7102,-2.1014 12.1584,-7.9556 13.5094,-1.9513 7.205,-4.8034 14.2599,-0.4503 6.0042,-10.057 11.4079,-1.3509 13.2092,-10.6574 21.296,0.3994 -7.9368,18.4383 0.4504,14.41 -4.8034,9.6067 -9.9069,6.1543 -9.1563,10.6574 -9.1564,0.4503 -0.9006,21.615 -22.0653,0.7505 -7.8054,14.41 -70.6991,15.3107 -48.7839,13.6594 -38.877,19.8138 -34.6741,9.7568 -15.4607,1.3509 -9.9069,8.556 -8.5559,-8.7061 -13.5094,7.3551 z"
       id="55"
       class="feoda" />
    <path
       style="fill:none;stroke:#000000;stroke-width:1.0015748;stroke-linecap:butt;stroke-linejoin:miter;stroke-opacity:0.01176471;stroke-miterlimit:4;stroke-dasharray:none"
       d="m 1641.3896,1326.6964 7.8054,-14.41 22.0653,-0.7505 0.9006,-21.615 9.1564,-0.4503 8.5559,6.3791 18.3127,1.8012 3.7526,5.2537 22.2155,7.8054 0.4503,4.6532 -25.2175,5.1036 -0.9006,9.1563 10.5072,9.4566 -0.9006,11.4079 -14.41,0.7505 -4.2029,14.41 -7.5052,10.8075 1.9513,12.909 10.9576,22.2154 -13.2091,5.8541 -33.7735,4.353 -9.0062,9.9069 -48.0334,0.6004 -10.5073,1.8012 -11.4079,-8.2557 -3.6025,-2.5518 -2.852,-10.0569 2.852,-3.9027 -8.5559,-12.7589 4.353,-54.4878 z"
       id="56"
       class="feoda" />
    <path
       style="fill:none;stroke:#000000;stroke-width:1.0015748;stroke-linecap:butt;stroke-linejoin:miter;stroke-opacity:0.01176471;stroke-miterlimit:4;stroke-dasharray:none"
       d="m 1483.0296,1375.4803 38.877,-19.8138 49.2342,-13.5093 -4.353,54.4878 8.5559,12.7589 -2.852,3.9027 2.852,10.0569 15.0104,10.8075 -12.3085,4.5779 -15.6108,12.3085 -24.467,0.9007 -1.0508,-5.1036 -11.2578,-0.1501 -2.7019,-13.0591 -27.0187,-51.3356 z"
       id="57"
       class="feoda" />
    <path
       style="fill:none;stroke:#000000;stroke-width:1.0015748;stroke-linecap:butt;stroke-linejoin:miter;stroke-opacity:0.01176471;stroke-miterlimit:4;stroke-dasharray:none"
       d="m 1422.9879,1395.144 9.9069,-8.556 15.4607,-1.3509 34.6741,-9.6814 12.909,6.8294 27.0187,51.3356 2.7019,13.0591 11.2578,0.1501 1.0508,5.1036 -17.4121,9.9815 -8.4059,4.5032 -6.0041,-5.1036 -6.3044,5.4038 -33.3231,3.6025 -39.9278,2.7018 -20.4141,18.9132 -32.1223,4.8033 35.1243,-49.5344 14.4101,-7.5052 z"
       id="58"
       class="feoda" />
    <path
       style="fill:none;stroke:#000000;stroke-width:1.0015748;stroke-linecap:butt;stroke-linejoin:miter;stroke-opacity:0.01176471;stroke-miterlimit:4;stroke-dasharray:none"
       d="m 1201.4341,1377.7319 22.5157,-16.8117 4.5031,6.0042 6.0041,-7.5052 18.0126,-3.6026 25.5177,4.203 16.2112,-8.6307 16.8117,11.0323 6.6046,15.4608 28.0695,3.3023 12.9089,5.5538 15.3107,-18.1626 10.5073,13.5848 16.5114,11.6327 13.5094,-7.3551 8.5559,8.7815 0.6005,44.6556 -14.4101,7.5052 -35.1243,49.5344 -24.9173,14.6348 -32.7228,-6.0041 -9.9068,-11.7082 -18.9132,-1.2008 -5.1035,-8.1056 -4.2029,5.4037 -12.0084,-12.6087 0.9007,-9.0063 -30.9215,-34.8242 -18.0125,-22.2154 -9.3065,-3.0021 -3.6025,-7.8054 4.5032,-6.6046 z"
       id="59"
       class="feoda" />
    <path
       style="fill:none;stroke:#000000;stroke-width:1.0015748;stroke-linecap:butt;stroke-linejoin:miter;stroke-opacity:0.01176471;stroke-miterlimit:4;stroke-dasharray:none"
       d="m 1349.1367,1511.6248 24.9173,-14.6348 32.1223,-4.8787 20.4141,-18.9132 36.6255,-2.6271 -6.0042,10.9576 16.8565,26.5044 15.2842,8.9157 5.5192,17.4069 5.0947,13.1613 -1.2736,13.1613 -8.9158,3.3965 -7.2175,-5.5192 -14.8595,2.1227 -3.8211,4.2456 -52.2207,-15.2841 -16.1332,2.1228 -8.4912,-6.7929 -12.7368,7.642 -17.4069,-24.1998 -5.0947,4.6701 -9.3403,-7.2175 z"
       id="60"
       class="feoda" />
    <path
       style="fill:none;stroke:#000000;stroke-width:1.0015748;stroke-linecap:butt;stroke-linejoin:miter;stroke-opacity:0.01176471;stroke-miterlimit:4;stroke-dasharray:none"
       d="m 1474.0682,1508.1084 -16.8565,-26.5044 6.0042,-10.9576 36.6254,-3.7526 6.3044,-5.4038 6.0041,5.1036 25.818,-14.4847 -1.351,8.5552 12.7589,14.1098 -22.3655,9.3065 z"
       id="61"
       class="feoda" />
    <path
       style="fill:none;stroke:#000000;stroke-width:1.0015748;stroke-linecap:butt;stroke-linejoin:miter;stroke-opacity:0.01176471;stroke-miterlimit:4;stroke-dasharray:none"
       d="m 1549.3757,1474.8493 -12.7589,-14.1098 1.351,-8.5552 24.467,-1.0515 15.6108,-12.3085 12.3085,-4.5779 10.5073,-1.8766 48.0334,-0.6004 9.0062,-9.9069 33.7735,-4.353 13.2091,-5.8541 4.8148,8.0693 13.5859,7.6421 5.5192,12.3122 -2.9053,3.2728 -0.3002,7.0549 -10.6574,9.1564 -5.5538,16.6615 -5.4038,10.5073 -15.0104,-3.9027 -9.3065,4.5031 -33.4732,-3.4524 -15.0104,-4.5031 -30.171,3.6025 -22.5156,7.6553 z"
       id="62"
       class="feoda" />
    <path
       style="fill:none;stroke:#000000;stroke-width:1.0015748;stroke-linecap:butt;stroke-linejoin:miter;stroke-opacity:0.01176471;stroke-miterlimit:4;stroke-dasharray:none"
       d="m 1703.983,1486.4073 5.4038,-10.5073 5.5538,-16.6615 10.6574,-9.1564 0.3002,-7.0549 2.9053,-3.2728 19.1601,0.9458 15.7609,4.3531 24.0167,0.6004 28.82,3.9027 6.0042,10.3572 -2.852,18.6129 -18.3127,15.3106 -7.6554,9.9069 -21.7651,7.8054 -24.9173,2.1015 -5.7039,3.1522 -8.8562,-10.8075 -9.9069,-11.408 -7.3551,-0.4503 z"
       id="63"
       class="feoda" />
    <path
       style="fill:none;stroke:#000000;stroke-width:1.0015748;stroke-linecap:butt;stroke-linejoin:miter;stroke-opacity:0.01176471;stroke-miterlimit:4;stroke-dasharray:none"
       d="m 1498.6927,1560.7536 1.2736,-13.1613 -5.2661,-13.5272 -5.3478,-17.041 -15.2842,-8.8403 75.3075,-33.3345 29.1202,15.4607 22.5156,-7.6553 30.171,-3.6025 15.0104,4.5031 33.4732,3.4524 9.3065,-4.5031 15.0104,3.9027 11.2578,7.8054 7.3551,0.4503 18.7631,22.2155 -8.3099,5.1649 -11.4631,17.6192 -10.1894,8.0666 -10.4017,1.9105 -20.3788,-9.7648 -26.3226,7.0052 -18.6806,8.2789 -27.3841,10.4017 -16.3455,12.3122 -7.0052,11.8876 -11.4631,-7.8543 -8.7034,-11.6754 -12.7368,-1.0614 -9.9771,-5.5192 -5.307,2.1228 -4.8825,-7.6421 -19.3174,8.0666 z"
       id="64"
       class="feoda" />
    <path
       style="fill:none;stroke:#000000;stroke-width:1.0015748;stroke-linecap:butt;stroke-linejoin:miter;stroke-opacity:0.01176471;stroke-miterlimit:4;stroke-dasharray:none"
       d="m 1342.455,1525.9398 9.3403,7.2175 5.0947,-4.6701 17.4069,24.1998 12.7368,-7.642 8.4912,6.7929 16.1332,-2.1228 52.2207,15.2841 3.8211,-4.2456 14.8595,-2.1227 7.2175,5.5192 8.9158,-3.3211 13.7981,5.4439 19.3174,-8.0666 4.8825,7.6421 5.307,-2.1228 9.9771,5.5192 12.7368,1.0614 8.7034,11.6754 11.4631,7.8543 -18.256,13.2982 -19.1052,3.8211 -15.7087,11.463 -3.821,8.0667 -23.3507,8.4911 -8.9158,10.614 -17.8314,5.5193 -14.0105,8.4912 -4.6701,-2.972 -11.0385,4.6702 -20.9096,-0.1061 -14.6472,1.9105 -13.1614,-2.9719 -20.9095,1.3798 -9.871,6.6868 -5.8377,-18.1499 -31.8419,-31.4174 -31.8419,-19.9542 -22.7139,-10.9324 5.6254,-19.3175 11.9938,-11.8876 11.7815,-23.8814 21.5464,-5.2009 9.6587,-5.4131 z"
       id="65"
       class="feoda" />
    <path
       style="fill:none;stroke:#000000;stroke-width:1.0015748;stroke-linecap:butt;stroke-linejoin:miter;stroke-opacity:0.01176471;stroke-miterlimit:4;stroke-dasharray:none"
       d="m 881.56204,1210.6659 17.11188,-8.1057 25.96803,-7.0548 11.85823,12.3085 11.85824,-13.3593 80.75608,-25.6678 32.1223,-0.6004 -4.9535,-16.5115 -6.6045,3.6025 -27.319,-2.2515 10.2071,-8.2558 21.9152,-5.7039 -12.6088,-10.3572 21.7652,-3.0021 8.5559,7.0549 1.4087,-7.0748 10.4017,-7.3236 26.7472,-0.743 13.3736,-9.9772 13.9645,21.8163 9.0063,-3.3023 31.8221,2.7019 18.3127,3.9027 19.8138,-1.8013 0.9006,-3.9027 19.8137,-1.2008 4.203,-4.2029 9.3064,0.3002 12.3086,-5.704 15.6108,-0.2248 7.4374,-0.7402 0.2123,20.5911 6.4601,8.8937 1.2008,7.8054 12.909,1.2009 12.3085,-1.5011 12.4433,2.2817 -10.7202,5.4131 -1.6982,6.1561 -43.0927,22.1832 -5.0947,-3.5026 -3.9272,5.9438 -5.6254,0.8491 -7.9605,9.1281 -18.0437,7.1113 -16.0271,14.3289 3.6087,8.8096 3.0781,18.5744 -19.5185,-0.9098 -13.8096,19.8138 -12.909,4.8033 -12.6087,8.4059 -18.3127,-1.8013 -6.0042,-12.9089 -11.1077,-2.4017 -2.7019,13.5094 -11.1077,7.5052 8.1056,4.8033 0.3002,19.5136 -8.1056,12.6087 -33.9167,7.3309 -23.563,12.7368 -14.3289,3.6087 -4.2456,12.4183 -7.0052,2.7597 -9.7649,10.8262 -16.4516,6.2623 -21.65251,-6.2623 -20.27268,-5.307 -39.69625,-34.4954 4.77628,-9.2341 -5.0947,-12.0999 0.84912,-36.8305 -28.97614,-31.099 -21.44023,-7.0052 z"
       id="66"
       class="feoda" />
    <path
       style="fill:none;stroke:#000000;stroke-width:1.0015748;stroke-linecap:butt;stroke-linejoin:miter;stroke-opacity:0.01176471;stroke-miterlimit:4;stroke-dasharray:none"
       d="m 745.94986,1415.13 -25.26125,-2.4412 -21.01566,-21.3341 -10.18941,-6.1561 -2.33508,-14.7534 -12.94904,-19.4236 -0.84912,-4.9886 -12.20607,-23.3507 -1.28611,-15.8747 0.37526,-15.3857 9.15636,-2.7769 7.73036,-9.9819 -0.58561,-5.8972 5.51927,-5.807 24.19985,-8.2789 7.42978,-15.0718 8.91573,-2.5473 5.30699,-7.8544 18.04375,-16.1332 -3.87216,-9.0342 3.37735,-4.6158 4.6157,7.3927 17.11188,13.9597 -2.85198,5.5538 9.00625,9.1564 3.60251,19.6636 15.91104,1.2009 11.40792,-27.1689 13.05907,-0.7505 13.35927,-9.9069 20.86449,-10.5073 30.02084,-1.2755 -3.46825,25.4371 21.44023,7.0052 28.97614,31.099 -0.84912,36.8305 5.0947,12.0999 -4.77628,9.2341 -13.47975,4.4886 2.54736,14.435 -36.51206,5.9439 -9.3403,-2.9719 -27.59632,16.9823 -21.22794,1.2737 -11.03853,14.435 -12.25214,4.6575 -8.25573,-1.6511 -12.98402,4.2779 z"
       id="67"
       class="feoda" />
    <path
       style="fill:none;stroke:#000000;stroke-width:1.0015748;stroke-linecap:butt;stroke-linejoin:miter;stroke-opacity:0.01176471;stroke-miterlimit:4;stroke-dasharray:none"
       d="m 752.17221,1448.8809 0.0399,-9.3388 -2.86577,-16.8762 -3.39647,-7.4605 31.89017,-20.812 12.98402,-4.2779 8.25573,1.6511 12.25214,-4.6575 11.03853,-14.435 21.22794,-1.2737 27.59632,-16.9823 9.3403,2.9719 36.51206,-5.9439 -2.54736,-14.435 13.47975,-4.4886 39.69625,34.42 20.27268,5.4439 v 14.0104 l -9.76485,14.0105 -35.02611,22.0771 -13.79816,33.1155 -11.25081,-1.2736 -13.16132,17.6192 H 893.0595 l -10.61397,5.5192 -26.7472,-20.8034 -4.03331,-5.0947 -22.7139,3.1842 -4.67015,-7.2175 -17.83147,-0.8491 -14.435,-5.9438 -14.22272,5.307 z"
       id="68"
       class="feoda" />
    <path
       style="fill:none;stroke:#000000;stroke-width:1.0015748;stroke-linecap:butt;stroke-linejoin:miter;stroke-opacity:0.01176471;stroke-miterlimit:4;stroke-dasharray:none"
       d="m 929.35928,1455.6753 13.79816,-33.1155 35.02611,-22.0771 9.76485,-14.0105 v -14.0104 l 21.6525,6.05 17.5622,19.859 12.7589,6.0042 9.6067,11.4079 30.6212,41.729 25.0674,55.2384 -0.1501,10.0569 -29.8707,-21.9152 -7.8054,5.704 -18.613,-22.0653 -14.8603,-13.3593 -31.9722,-13.6595 -20.71436,13.9597 -13.05907,-2.852 -30.92146,-12.1584 z"
       id="69"
       class="feoda" />
    <path
       style="fill:none;stroke:#000000;stroke-width:1.0015748;stroke-linecap:butt;stroke-linejoin:miter;stroke-opacity:0.01176471;stroke-miterlimit:4;stroke-dasharray:none"
       d="m 748.70949,1475.948 3.71489,-7.5359 -3.18419,-5.307 3.07805,-5.6254 -0.14603,-8.5234 25.61957,-2.8335 14.22272,-5.307 14.435,5.9438 17.83147,0.8491 4.67015,7.2175 22.7139,-3.1842 4.03331,5.0947 26.7472,20.8034 10.61397,-5.5192 h 11.88765 l 13.16132,-17.6192 19.14224,2.1349 30.92146,12.1584 13.05907,2.852 20.71436,-13.9597 31.9722,13.6595 14.8603,13.3593 18.613,22.0653 7.8054,-5.704 29.8707,21.9152 -0.6004,6.9795 0.6004,10.8075 -24.9173,-15.911 -26.4183,0.9006 -15.6109,4.2029 -30.0208,-15.3106 -26.11814,-1.501 -4.80333,3.9027 -10.20709,1.2008 -12.00834,11.1077 -13.50938,19.2134 -20.11396,-8.4059 -20.71438,-12.6087 -20.71438,0.9006 -7.50522,1.501 -12.00833,-8.706 -27.31897,-0.6004 -23.41626,-13.8096 -14.71021,-3.0021 -8.10563,-5.1035 7.80542,-7.205 9.90688,-7.205 -9.00625,-4.203 -27.01876,3.6025 -9.90688,-6.3043 z"
       id="70"
       class="feoda" />
    <path
       style="fill:none;stroke:#000000;stroke-width:1.0015748;stroke-linecap:butt;stroke-linejoin:miter;stroke-opacity:0.01176471;stroke-miterlimit:4;stroke-dasharray:none"
       d="m 833.07838,1520.6311 27.31897,0.6004 12.00833,8.706 7.50522,-1.501 20.71438,-0.9006 20.71438,12.6087 20.11396,8.4059 7.80542,10.7321 0.90063,19.5135 -3.3023,2.7019 -17.11188,11.7081 -21.01459,21.9152 -24.61709,8.1057 -9.90687,6.0041 -24.01668,0.3002 -12.60875,15.9111 2.70187,27.0187 -6.00417,5.4038 -13.20917,6.0042 -22.81584,7.5052 -11.40792,12.9089 -10.20708,-4.2029 7.205,-7.205 3.6025,-33.0229 -26.41834,-15.6109 -0.30021,-21.9152 8.70604,-10.5073 14.41001,-3.002 0.90062,-4.5032 -6.90479,-6.0041 22.21542,-30.0209 10.80751,-5.4037 h 6.60458 l 10.80751,-17.7123 -4.50313,-9.9069 9.30646,-3.3023 z"
       id="71"
       class="feoda" />
    <path
       style="fill:none;stroke:#000000;stroke-width:1.0015748;stroke-linecap:butt;stroke-linejoin:miter;stroke-opacity:0.01176471;stroke-miterlimit:4;stroke-dasharray:none"
       d="m 950.15967,1578.8715 -0.90063,-19.5135 -7.80542,-10.8075 13.50938,-19.2134 12.00834,-11.1077 10.20709,-1.2008 4.80333,-3.9027 26.11814,1.501 30.0208,15.3106 -8.5655,37.5337 -0.2123,25.8981 15.2841,26.5349 11.8876,14.0104 6.3684,13.3736 -10.4017,4.0334 -20.8034,0.6368 -22.7138,-9.9771 -20.16659,-0.2123 -42.03133,-12.0999 -8.91573,-5.7316 12.94904,-24.8367 -3.94212,-17.5274 z"
       id="72"
       class="feoda" />
    <path
       style="fill:none;stroke:#000000;stroke-width:1.0015748;stroke-linecap:butt;stroke-linejoin:miter;stroke-opacity:0.01176471;stroke-miterlimit:4;stroke-dasharray:none"
       d="m 1062.883,1647.3636 -6.3684,-13.3736 -11.8876,-14.0104 -15.2841,-26.5349 0.2123,-25.8981 8.5655,-37.5337 15.6109,-4.2783 26.4183,-0.9006 24.9173,15.911 3.3023,9.8315 -5.704,34.8242 -5.1035,27.6192 -11.4079,18.0125 -1.8013,4.2029 -10.5073,4.8033 z"
       id="73"
       class="feoda" />
    <path
       style="fill:none;stroke:#000000;stroke-width:1.0015748;stroke-linecap:butt;stroke-linejoin:miter;stroke-opacity:0.01176471;stroke-miterlimit:4;stroke-dasharray:none"
       d="m 1084.3528,1635.3107 13.2092,-22.2154 10.8075,-62.4434 -3.3023,-9.9069 v -17.8624 l 0.1501,-10.0569 -25.0674,-55.2384 -30.6212,-41.729 -9.6067,-11.4079 -12.7589,-6.0042 -17.5622,-19.859 16.4516,-6.3377 9.7649,-10.8262 7.0052,-2.7597 4.2456,-12.4183 14.3289,-3.6087 23.563,-12.7368 33.9167,-7.3309 0.3002,6.229 6.3044,2.4017 2.7019,6.9048 5.4037,-0.3003 13.5094,5.704 9.6067,11.7081 -24.0167,37.5261 -2.1015,9.0062 15.3107,3.9027 13.8095,-4.5031 10.8076,-20.7144 6.6045,4.8034 12.909,-15.0104 11.4079,7.5052 8.4059,16.2112 -4.5032,6.6046 3.6025,7.8054 9.3065,3.0021 18.6002,22.8045 -12.4183,14.1166 -12.2061,2.1228 -12.8429,25.6858 -5.5193,4.7763 4.6702,27.0656 5.9438,13.692 -0.4246,10.614 -6.6868,1.3798 -10.6139,11.4631 -18.3369,14.2069 -14.1098,33.0229 -7.8054,23.4162 -0.3002,8.7061 -15.3107,-2.4017 -17.1118,7.205 z"
       id="74"
       class="feoda" />
    <path
       style="fill:none;stroke:#000000;stroke-width:1.0015748;stroke-linecap:butt;stroke-linejoin:miter;stroke-opacity:0.01176471;stroke-miterlimit:4;stroke-dasharray:none"
       d="m 1146.1958,1624.5032 0.3002,-8.7061 7.8054,-23.4162 14.1098,-33.0229 18.3369,-14.2069 10.6139,-11.4631 6.6868,-1.3798 0.4246,-10.614 -5.9438,-13.692 -4.6702,-27.0656 5.5193,-4.7763 12.8429,-25.6858 12.2061,-2.1228 12.4183,-14.1166 30.3338,34.1597 -0.9007,9.0063 12.0084,12.6087 4.2029,-5.4037 5.1035,8.1056 18.9132,1.2008 9.9068,11.7082 32.7228,6.0795 -6.6817,14.2396 -5.4131,-3.821 -9.6587,5.4131 -21.5464,5.2009 -11.7815,23.8814 -11.9938,11.8876 -5.6254,19.3175 -12.949,8.0973 -10.1894,9.7649 -25.8981,22.077 -13.1614,39.484 -25.0489,-26.7472 z"
       id="75"
       class="feoda" />
    <path
       style="fill:none;stroke:#000000;stroke-width:1.0015748;stroke-linecap:butt;stroke-linejoin:miter;stroke-opacity:0.01176471;stroke-miterlimit:4;stroke-dasharray:none"
       d="m 1242.2591,1615.1279 21.228,-19.1359 12.949,-8.1727 22.7139,10.9324 31.8419,19.9542 31.8419,31.4174 5.8377,18.1499 -3.9271,4.1702 -18.9991,-4.4579 -31.5235,-1.1675 -51.4777,-32.9034 -11.5692,-4.1394 4.7763,-6.3684 z"
       id="76"
       class="feoda" />
    <path
       style="fill:none;stroke:#000000;stroke-width:1.0015748;stroke-linecap:butt;stroke-linejoin:miter;stroke-opacity:0.01176471;stroke-miterlimit:4;stroke-dasharray:none"
       d="m 1214.2382,1667.3179 13.1614,-39.484 14.8595,-12.6306 13.6921,8.2789 -4.7763,6.3684 11.5692,4.1394 51.4777,32.9034 31.5235,1.1675 18.9991,4.4579 3.3054,5.0459 7.205,2.1014 0.9006,14.1098 -11.7081,12.909 -28.5198,13.8096 -50.1348,4.5031 -24.0167,-9.3064 -17.7123,-19.2134 -25.2175,-18.3127 z"
       id="77"
       class="feoda" />
    <path
       style="fill:none;stroke:#000000;stroke-width:1.0015748;stroke-linecap:butt;stroke-linejoin:miter;stroke-opacity:0.01176471;stroke-miterlimit:4;stroke-dasharray:none"
       d="m 1073.8455,1640.114 10.5073,-4.7279 29.4205,-6.0796 17.1118,-7.205 15.3107,2.4771 42.9935,15.9921 25.0489,26.7472 4.608,10.9226 25.2175,18.3127 17.7123,19.2134 -19.9414,16.4334 -30.7938,34.2264 -27.319,31.0715 -20.5643,21.465 -10.9576,14.1097 -18.4628,11.5581 -3.3023,-2.852 3.6025,-6.6046 -11.1077,-6.3044 -2.2515,-18.0125 -17.5622,-16.9618 1.3509,-9.7567 3.3023,-8.7061 -4.8033,-15.911 39.1772,-11.4079 -4.8034,-11.7082 3.7526,-6.4544 2.4017,-18.1627 14.1098,-17.1118 -3.9027,-19.0633 -12.4587,-2.2515 -17.7123,-10.6574 -10.3572,5.7039 -22.2154,-12.4586 z"
       id="78"
       claas="feoda" />
    <path
       style="fill:none;stroke:#000000;stroke-width:1.0015748;stroke-linecap:butt;stroke-linejoin:miter;stroke-opacity:0.01176471;stroke-miterlimit:4;stroke-dasharray:none"
       d="m 937.85045,1624.0129 8.91573,5.7316 42.03133,12.0999 20.16659,0.2123 22.7138,9.9771 20.8034,-0.6368 10.4017,-3.958 10.9625,-7.2496 17.1119,15.8357 -5.7039,17.9371 -5.1036,8.1056 5.4038,14.41 -8.4059,7.5052 -23.7164,-4.5031 -15.9111,-9.6067 -12.6087,6.6046 -18.3127,-3.9027 -24.01672,-2.1015 -12.90897,6.9048 -3.90271,-7.5052 -23.71646,-13.8096 -22.81584,-22.8158 12.90896,-14.41 z"
       id="79"
       class="feoda" />
    <path
       style="fill:none;stroke:#000000;stroke-width:1.0015748;stroke-linecap:butt;stroke-linejoin:miter;stroke-opacity:0.01176471;stroke-miterlimit:4;stroke-dasharray:none"
       d="m 834.27921,1677.9403 6.00417,-5.4038 -2.70187,-27.0187 12.60875,-15.9111 24.01668,-0.3002 9.90687,-6.0041 24.61709,-8.1057 21.01459,-21.9152 17.11188,-11.6327 3.94212,17.5274 -12.94904,24.8367 -5.70329,14.9003 -12.90896,14.41 -13.80959,11.0323 -14.10979,29.1202 -16.81168,19.2134 -9.60667,18.3127 -6.60458,-7.205 -2.70188,-10.8075 -18.31271,-16.5115 z"
       id="80"
       class="feoda" />
    <path
       style="fill:none;stroke:#000000;stroke-width:1.0015748;stroke-linecap:butt;stroke-linejoin:miter;stroke-opacity:0.01176471;stroke-miterlimit:4;stroke-dasharray:none"
       d="m 786.84628,1704.3586 11.40792,-12.9089 22.81584,-7.5052 13.20917,-5.9288 3.00209,18.5375 18.31271,16.5115 2.70188,10.8075 6.60458,7.205 16.21126,10.7321 53.13689,11.7081 -8.70604,6.3044 -31.22168,9.3065 -11.40792,15.6108 -9.90688,4.2029 -33.32313,24.9173 -12.30855,-0.6004 -9.60667,-6.3044 -10.8075,2.1015 -9.60667,-8.4059 -31.52189,-7.8054 -8.40583,-14.1098 5.70396,-10.5073 -4.50313,-13.5094 16.81167,-15.3106 v -25.2175 z"
       id="81"
       class="feoda" />
    <path
       style="fill:none;stroke:#000000;stroke-width:1.0015748;stroke-linecap:butt;stroke-linejoin:miter;stroke-opacity:0.01176471;stroke-miterlimit:4;stroke-dasharray:none"
       d="m 934.24862,1753.5928 -53.13689,-11.7081 -16.21126,-10.7321 9.60667,-18.3881 16.81168,-19.2134 14.10979,-29.1202 13.80959,-11.0323 22.81584,22.7404 23.71646,13.8096 3.90271,7.5052 6.81209,14.1551 9.55258,10.1894 6.1561,22.0771 -4.24559,20.5911 -35.0261,-8.9158 z"
       id="82"
       class="feoda" />
    <path
       style="fill:none;stroke:#000000;stroke-width:1.0015748;stroke-linecap:butt;stroke-linejoin:miter;stroke-opacity:0.01176471;stroke-miterlimit:4;stroke-dasharray:none"
       d="m 987.94839,1764.5419 4.24559,-20.5911 -6.1561,-22.0771 -9.55258,-10.1894 -6.81209,-14.2305 12.90897,-6.9048 24.01672,2.1015 18.3127,3.9027 12.6087,-6.6046 15.9111,9.6067 23.7164,4.5031 5.9018,11.7961 1.4859,14.8596 18.4303,28.8829 4.8033,15.911 -3.3023,8.7061 -1.3509,9.7567 -24.5242,8.9183 -44.791,-6.3684 -22.077,-5.9438 -9.7649,-4.8825 -1.4859,-14.435 z"
       id="83"
       class="feoda" />
    <path
       style="fill:none;stroke:#000000;stroke-width:1.0015748;stroke-linecap:butt;stroke-linejoin:miter;stroke-opacity:0.01176471;stroke-miterlimit:4;stroke-dasharray:none"
       d="m 839.68297,1813.9347 33.32313,-24.9173 9.90688,-4.2029 11.40792,-15.6108 31.22168,-9.3065 8.70604,-6.229 18.67367,1.9579 35.0261,8.9912 12.52451,6.7175 1.4859,14.435 9.7649,4.8825 22.077,5.9438 44.791,6.3684 24.5242,-8.9937 17.5622,16.9618 2.2515,18.0125 11.1077,6.3044 -3.6025,6.6046 -3.6557,9.2224 -14.435,9.3403 -15.7087,-3.3965 -12.3122,-5.9438 -15.2841,-1.2737 -5.0947,5.9438 -26.3226,5.0947 -57.74003,-22.5016 -23.77529,-8.9157 -19.10515,1.6982 -14.435,-0.4245 -17.40691,-12.7368 -8.49118,-11.8877 -16.13323,7.6421 -6.79294,-0.4246 -8.06662,6.3684 -8.49118,-4.2456 -8.49118,3.3965 z"
       id="84"
       class="feoda" />
    <path
       style="fill:none;stroke:#000000;stroke-width:1.0015748;stroke-linecap:butt;stroke-linejoin:miter;stroke-opacity:0.01176471;stroke-miterlimit:4;stroke-dasharray:none"
       d="m 648.08905,1491.4444 12.20607,-2.9719 17.93761,2.8658 14.64728,-6.3684 5.94382,2.2289 33.22173,-11.0385 16.66393,-0.2123 9.9172,1.4531 9.90688,6.3043 27.01876,-3.6025 9.00625,4.203 -9.90688,7.205 -7.80542,7.205 8.10563,5.1035 14.71021,3.0021 23.41626,13.8096 v 11.4079 l -9.30646,3.3023 4.50313,9.9069 -10.80751,17.7123 h -6.60458 l -10.80751,5.4037 -12.00833,2.0261 -9.60667,-2.7019 -20.11397,7.8054 -18.0125,11.1077 h -18.01251 l -11.70813,-5.7039 -7.50521,-7.5052 -14.71021,0.3002 -6.90479,4.8033 -13.50938,-9.0063 -1.50105,-6.9047 -15.61083,-15.9111 -7.80542,0.6004 -8.40584,-17.7123 -11.40792,2.4017 8.10563,-10.2071 11.70813,-8.706 -2.70188,-2.7019 z"
       id="85"
       class="feoda" />
    <path
       style="fill:none;stroke:#000000;stroke-width:1.0015748;stroke-linecap:butt;stroke-linejoin:miter;stroke-opacity:0.01176471;stroke-miterlimit:4;stroke-dasharray:none"
       d="m 510.80464,1519.7305 11.10771,-16.3614 6.00417,-2.7019 0.90062,-6.7547 4.35302,0.6004 15.16053,-7.9555 13.95969,-2.2515 8.70605,1.0507 4.80333,-4.353 16.06115,-2.7766 18.54854,-2.522 26.00423,-0.3938 6.89908,5.2008 0.21228,5.8377 4.56401,5.1701 -7.74448,18.9042 2.70188,2.7019 -11.70813,8.706 -8.10563,10.2071 11.40792,-2.4017 8.40584,17.7123 7.80542,-0.6004 15.61083,15.9111 1.50105,6.9047 -11.17124,5.5482 -9.76486,-2.9719 -9.76485,6.793 -11.88765,-8.0666 -22.50162,11.8876 -11.46308,-2.1228 -9.3403,-6.7929 -17.83147,7.2175 -9.76485,0.4245 -27.59633,-4.2456 -16.98235,-5.5192 -5.0947,4.2456 -11.88765,-5.0947 6.79294,-7.2175 0.84912,-15.2842 9.76485,-14.0104 z"
       id="86"
       class="feoda" />
    <path
       style="fill:none;stroke:#000000;stroke-width:1.0015748;stroke-linecap:butt;stroke-linejoin:miter;stroke-opacity:0.01176471;stroke-miterlimit:4;stroke-dasharray:none"
       d="m 492.9128,1570.9431 11.88765,5.0947 5.0947,-4.2456 16.98235,5.5192 27.59633,4.2456 9.76485,-0.4245 17.83147,-7.2175 9.3403,6.7929 11.46308,2.1228 -16.55779,26.6718 -8.06662,-0.8491 -6.36838,4.2456 H 562.965 l -11.88764,14.435 -2.54736,9.3403 -12.3122,-0.4246 -12.73677,5.5193 -38.21029,-12.3122 -18.25603,-2.1228 2.97191,-16.5578 6.36838,-12.3122 6.79294,-5.9438 z"
       id="87"
       class="feoda" />
    <path
       style="fill:none;stroke:#000000;stroke-width:1.0015748;stroke-linecap:butt;stroke-linejoin:miter;stroke-opacity:0.01176471;stroke-miterlimit:4;stroke-dasharray:none"
       d="m 571.88074,1612.9744 6.36838,-4.2456 8.06662,0.8491 16.55779,-26.6718 22.50162,-11.963 11.88765,8.0666 9.76485,-6.793 9.76486,2.9719 11.17124,-5.5482 13.50938,8.9309 6.90479,-4.8033 14.71021,-0.3002 7.50521,7.5052 11.70813,5.7039 h 18.01251 l 18.0125,-11.1077 20.11397,-7.8054 9.60667,2.7019 12.00833,-2.0261 -22.21542,29.9455 6.90479,6.0041 -0.90062,4.5032 -14.41001,3.002 -8.70604,10.5073 -12.6555,6.6305 -15.70867,-8.9157 -14.435,8.0666 -51.79618,16.9824 -12.73677,2.9719 -19.95426,-6.793 -10.18941,3.8211 -10.18941,-5.0948 -7.2175,2.1228 -22.92618,-14.8595 z"
       id="88"
       class="feoda" />
    <path
       style="fill:none;stroke:#000000;stroke-width:1.0015748;stroke-linecap:butt;stroke-linejoin:miter;stroke-opacity:0.01176471;stroke-miterlimit:4;stroke-dasharray:none"
       d="m 717.92898,1628.2585 14.435,-8.0666 15.70867,8.9157 12.6555,-6.6305 0.30021,21.8398 26.41834,15.6109 -3.6025,33.0229 -7.205,7.205 10.20708,4.2783 -11.40792,9.8315 v 25.2175 l -35.85688,-1.3392 -27.17177,-19.1051 -11.46309,3.3965 -19.10514,-18.2561 -6.79295,-31.8419 -1.69823,-16.1332 -7.2175,-10.9631 z"
       id="89"
       class="feoda" />
    <path
       style="fill:none;stroke:#000000;stroke-width:1.0015748;stroke-linecap:butt;stroke-linejoin:miter;stroke-opacity:0.01176471;stroke-miterlimit:4;stroke-dasharray:none"
       d="m 605.84545,1642.2689 7.2175,-2.1228 10.18941,5.0948 10.18941,-3.8211 19.95426,6.793 12.73677,-2.8965 7.2175,10.9631 1.69823,16.1332 6.79295,31.8419 19.10514,18.2561 11.46309,-3.3965 14.8452,10.837 -13.95969,9.7567 -9.30646,-5.1035 -9.45657,5.7039 -26.56844,-4.2029 -11.40792,1.9514 -16.81167,-1.2009 -31.22168,-13.059 -47.88324,-39.0271 -1.35094,-14.8603 14.71021,-6.3044 14.41,-11.2578 1.95136,-4.8034 9.60667,-0.1501 z"
       id="90"
       class="feoda" />
    <path
       style="fill:none;stroke:#000000;stroke-width:1.0015748;stroke-linecap:butt;stroke-linejoin:miter;stroke-opacity:0.01176471;stroke-miterlimit:4;stroke-dasharray:none"
       d="m 497.29526,1633.2839 26.18577,8.5605 12.73677,-5.5193 12.3122,0.4246 2.54736,-9.3403 11.88764,-14.435 8.91574,0.075 11.03853,14.3596 22.92618,14.8595 -5.87891,5.2002 -9.60667,0.1501 -1.95136,4.8034 -14.41,11.2578 -14.71021,6.3044 1.35094,14.8603 -13.05907,14.0344 -13.95969,4.5031 -9.75678,-9.0062 -7.205,-15.6109 -13.50938,2.5518 -3.6025,-3.6025 2.10146,-24.6171 z"
       id="91"
       class="feoda" />
    <path
       style="fill:none;stroke:#000000;stroke-width:1.0015748;stroke-linecap:butt;stroke-linejoin:miter;stroke-opacity:0.01176471;stroke-miterlimit:4;stroke-dasharray:none"
       d="m 467.01471,1627.4094 18.25603,2.1228 12.02452,3.8271 4.35302,19.8134 -2.10146,24.6171 -5.7849,6.8596 -1.69824,9.9772 -21.44022,18.4683 -12.31221,5.307 -10.40169,12.5244 -6.79294,1.2737 -28.02088,15.0719 -24.19985,1.2736 1.69823,-15.4964 5.94382,-4.0333 0.21228,-7.642 -1.27367,-15.0719 18.89287,-32.691 16.34551,-4.8824 6.1561,-7.0053 3.60875,-9.3402 24.83669,-14.2228 z"
       id="92"
       class="feoda" />
    <path
       style="fill:none;stroke:#000000;stroke-width:1.0015748;stroke-linecap:butt;stroke-linejoin:miter;stroke-opacity:0.01176471;stroke-miterlimit:4;stroke-dasharray:none"
       d="m 388.89589,1748.6209 24.19985,-1.2736 28.02088,-15.0719 6.79294,-1.2737 10.40169,-12.5244 12.31221,-5.307 21.44022,-18.4683 1.69824,-9.9772 5.7849,-6.8596 3.6025,3.5271 13.50938,-2.5518 7.205,15.6109 9.75678,9.0062 -5.89386,11.3355 -37.78573,17.8315 -0.84912,5.9438 -12.73677,5.5193 -14.85956,12.3122 -16.98235,4.6701 -14.435,19.9543 -8.91573,5.0947 1.69823,50.5225 5.09471,2.5473 -13.16133,10.614 -2.54735,8.4912 -6.79294,3.821 -8.91574,18.256 -8.91573,7.6421 1.27368,9.7649 -3.82103,5.0947 8.49117,8.4911 -8.77388,9.0695 -15.9861,6.5295 -10.13203,9.1564 -12.30855,-12.7589 -3.15219,-29.4204 4.57818,-14.4851 -14.71021,-40.9784 -1.05073,-12.1584 -5.55386,-10.3572 -0.45031,-9.6067 -5.25365,-7.0549 11.85824,-14.5601 2.85198,-6.3044 11.85823,-4.0528 z"
       id="93"
       class="feoda" />
    <path
       style="fill:none;stroke:#000000;stroke-width:1.0015748;stroke-linecap:butt;stroke-linejoin:miter;stroke-opacity:0.01176471;stroke-miterlimit:4;stroke-dasharray:none"
       d="m 489.09177,1738.6438 0.84912,-5.9438 37.78573,-17.8315 5.89386,-11.3355 13.95969,-4.5785 13.05907,-14.0344 47.88324,38.9521 31.22168,13.059 -6.9048,5.4785 -9.60667,-0.3002 -26.11813,11.1077 -6.00417,12.6088 -9.60667,4.8033 -6.00417,-5.1035 -14.10979,4.8033 -24.31689,-16.8117 -12.90896,-0.9006 -8.70604,-3.9027 -8.40584,-0.3002 z"
       id="94"
       class="feoda" />
    <path
       style="fill:none;stroke:#000000;stroke-width:1.002;stroke-linecap:butt;stroke-linejoin:miter;stroke-opacity:0.01176471;stroke-miterlimit:4;stroke-dasharray:none"
       d="m 581.50372,1770.7047 9.60667,-4.8033 6.00417,-12.6088 26.11813,-11.1077 9.60667,0.3002 6.9048,-5.5539 16.81167,1.2009 11.40792,-1.9514 26.56844,4.2029 9.45657,-5.7039 9.30646,5.1035 13.95969,-9.7567 12.32657,8.1927 35.85688,1.3392 -16.81167,15.2352 4.50313,13.5094 -5.70396,10.5073 -3.00209,9.5313 -10.50729,1.8012 -12.30855,-8.4058 -31.52188,1.501 -5.10354,4.203 -11.10772,-3.0021 -13.20917,8.1056 -18.61292,-1.2008 -23.71647,-9.0063 -24.01667,-12.0083 -6.00417,4.8033 z"
       id="95"
       class="feoda" />
    <path
       style="fill:none;stroke:#000000;stroke-width:1.0015748;stroke-linecap:butt;stroke-linejoin:miter;stroke-opacity:0.01176471;stroke-miterlimit:4;stroke-dasharray:none"
       d="m 628.33623,1782.4128 23.71647,9.0063 18.61292,1.2008 13.20917,-8.1056 11.10772,3.0021 5.10354,-4.203 31.52188,-1.501 12.30855,8.4058 10.50729,-1.8012 3.00209,-9.5313 8.40583,14.0344 31.52189,7.8054 9.60667,8.4059 10.8075,-2.1015 9.60667,6.3044 12.30855,0.6758 9.01012,4.8753 8.49118,-3.3965 8.49118,4.2456 -2.87643,4.3319 -19.81376,6.6046 -11.40792,-5.704 -9.90688,5.4038 -11.70813,-0.9007 -27.01876,23.7165 -7.50521,23.4163 -9.90687,13.5093 -15.61084,-10.8075 -3.3023,-15.0104 -4.80333,-6.9048 -24.61709,-8.4058 -8.10563,2.4017 -11.40792,-4.5032 -12.60875,6.3044 -11.70813,-11.4079 -9.60667,7.5052 -11.10771,-2.4017 -9.90688,8.4059 -13.20917,-3.9027 -6.9048,5.4037 -6.60458,-4.2029 -9.90688,9.3065 -13.20917,-3.3023 11.70813,-10.2071 -6.60459,-7.205 14.71022,-21.3148 z"
       id="96"
       class="feoda" />
    <path
       style="fill:none;stroke:#000000;stroke-width:1.0015748;stroke-linecap:butt;stroke-linejoin:miter;stroke-opacity:0.01176471;stroke-miterlimit:4;stroke-dasharray:none"
       d="m 765.53149,1890.1876 9.90687,-13.5093 7.50521,-23.4163 27.01876,-23.7165 11.70813,0.9007 9.90688,-5.4038 11.40792,5.704 19.81376,-6.6046 2.87643,-4.3319 8.06662,-6.4438 6.79294,0.4246 16.13323,-7.6421 8.49118,11.8877 17.40691,12.7368 14.435,0.4245 -8.49118,15.6333 -6.79294,2.1228 -28.87,22.9262 -2.54735,9.3403 -11.88765,11.8876 -39.48397,15.2841 -17.40691,12.3122 -30.99279,-18.6806 z"
       id="97"
       class="feoda" />
    <path
       style="fill:none;stroke:#000000;stroke-width:1.0015748;stroke-linecap:butt;stroke-linejoin:miter;stroke-opacity:0.01176471;stroke-miterlimit:4;stroke-dasharray:none"
       d="m 606.12081,1861.9681 9.90688,-9.3065 6.60458,4.2029 6.9048,-5.4037 13.20917,3.9027 9.90688,-8.4059 11.10771,2.4017 9.60667,-7.5052 11.70813,11.4079 12.60875,-6.3044 11.40792,4.5032 8.10563,-2.4017 24.61709,8.4058 4.80333,6.9048 3.3023,15.0104 15.61084,10.8075 24.99705,11.9113 -16.5578,13.5105 -36.93662,5.8377 -18.4683,12.2061 -23.98758,-10.9324 -23.56301,-5.307 -10.18942,1.6982 -14.85955,-3.1842 -12.73677,-7.3236 -8.91573,3.3965 -10.72011,-6.8991 -9.44644,1.3798 -9.02187,-5.4131 -9.12802,5.6254 -14.9657,-11.7815 21.2796,-9.153 z"
       id="98"
       class="feoda" />
    <path
       style="fill:none;stroke:#000000;stroke-width:1.0015748;stroke-linecap:butt;stroke-linejoin:miter;stroke-opacity:0.01176471;stroke-miterlimit:4;stroke-dasharray:none"
       d="m 598.01518,1841.2537 6.60459,7.205 -11.70813,10.2071 13.20917,3.3777 -13.80959,23.7911 -21.2796,9.153 -29.18842,-1.5614 -13.58588,-27.1717 2.75963,-5.0947 30.67438,-31.842 22.1832,-2.4412 z"
       id="99"
       class="feoda" />
    <path
       style="fill:none;stroke:#000000;stroke-width:1.0015748;stroke-linecap:butt;stroke-linejoin:miter;stroke-opacity:0.01176471;stroke-miterlimit:4;stroke-dasharray:none"
       d="m 427.9553,1839.2642 -5.09471,-2.5473 -1.69823,-50.5225 8.91573,-5.0947 14.435,-19.9543 16.98235,-4.6701 14.85956,-12.3122 12.73677,-5.4439 17.96026,9.7701 8.40584,0.3002 8.70604,3.9027 12.90896,0.9006 24.31689,16.8117 14.10979,-4.8033 6.00417,5.1789 16.81167,4.4277 6.00417,-4.8033 24.01667,12.0083 -15.61083,37.5261 -14.71022,21.3148 -14.14065,-14.3017 -22.1832,2.4412 -30.67438,31.842 -14.05804,-49.1771 -18.61292,-14.41 -21.3148,9.0062 -11.70813,6.0042 -9.60667,14.41 z"
       id="100"
       class="feoda" />
    <path
       style="fill:none;stroke:#000000;stroke-width:1.0015748;stroke-linecap:butt;stroke-linejoin:miter;stroke-opacity:0.01176471;stroke-miterlimit:4;stroke-dasharray:none"
       d="m 393.56603,1911.4392 -8.49117,-8.4911 3.82103,-5.0947 -1.27368,-9.7649 8.91573,-7.6421 8.91574,-18.256 6.79294,-3.821 2.54735,-8.4912 13.16133,-10.614 27.76109,-12.1203 9.60667,-14.41 33.02293,-15.0104 18.61292,14.41 14.05804,49.1017 -2.75963,5.0947 13.58588,27.1717 29.18842,1.486 14.9657,11.7815 -1.49152,9.7615 -15.31063,7.205 -8.70604,11.7081 -11.10771,5.4038 -10.5073,2.7018 -11.40792,6.6046 -36.02501,-5.7039 -21.01459,-7.205 -3.00208,-6.3044 -20.11397,-6.6046 -18.91313,-15.6108 -6.30437,-1.5011 z"
       id="101"
       class="feoda" />
    <path
       style="fill:none;stroke:#000000;stroke-width:1.0015748;stroke-linecap:butt;stroke-linejoin:miter;stroke-opacity:0.01176471;stroke-miterlimit:4;stroke-dasharray:none"
       d="m 358.67402,1936.1946 10.13203,-9.1564 15.9861,-6.5295 8.77388,-9.0695 28.52702,-4.1397 6.30437,1.5011 18.91313,15.6108 20.11397,6.6046 3.00208,6.3044 21.01459,7.205 36.02501,5.7039 21.91522,60.2665 -19.21334,2.7019 -16.21126,8.706 -22.81584,-1.8012 -71.4496,32.7227 -2.40167,-6.9048 -12.30854,-5.1035 -5.70396,10.8075 -6.00417,-9.9069 -6.30438,-1.8012 -3.6025,5.1035 -10.5073,1.2008 -11.10771,10.8075 -12.90896,1.8013 -8.40584,7.8054 -7.50521,-10.2071 5.10355,-22.2154 9.90688,-10.8075 6.30437,-18.9131 11.10771,-3.9028 4.50313,-10.5072 3.6025,-19.8138 -1.50104,-11.7081 z"
       id="105"
       class="feoda" />
    <path
       style="fill:none;stroke:#000000;stroke-width:1.0015748;stroke-linecap:butt;stroke-linejoin:miter;stroke-opacity:0.01176471;stroke-miterlimit:4;stroke-dasharray:none"
       d="m 549.38142,2010.5712 -21.91522,-60.3419 11.40792,-6.6046 10.5073,-2.7018 11.10771,-5.4038 8.70604,-11.7081 15.31063,-7.205 1.49152,-9.7615 9.12802,-5.7008 9.02187,5.4131 9.44644,-1.3798 10.72011,6.8991 8.91573,-3.3965 12.73677,7.3236 10.88978,17.0389 -0.90063,14.1097 16.21125,23.1161 6.9048,4.5031 1.50104,24.9173 -27.61917,2.7019 -24.6171,3.6025 -22.51563,-0.6004 z"
       id="106"
       class="feoda" />
    <path
       style="fill:none;stroke:#000000;stroke-width:1.0015748;stroke-linecap:butt;stroke-linejoin:miter;stroke-opacity:0.01176471;stroke-miterlimit:4;stroke-dasharray:none"
       d="m 680.5725,1999.7637 -1.50104,-24.9173 -6.9048,-4.5031 -16.21125,-23.1161 0.90063,-14.1097 -10.88978,-17.0389 14.85955,3.1088 10.18942,-1.6982 23.56301,5.307 23.98758,10.9324 18.4683,-12.2061 36.93662,-5.8377 16.5578,-13.5105 30.99279,18.6052 -55.08922,42.5836 -3.90271,1.2008 -7.80542,9.3065 -12.60875,-1.2008 -21.91522,12.9089 -21.615,6.6046 -10.20709,6.6046 z"
       id="107"
       class="feoda" />
    <path
       style="fill:none;stroke:#000000;stroke-width:1.0015748;stroke-linecap:butt;stroke-linejoin:miter;stroke-opacity:0.01176471;stroke-miterlimit:4;stroke-dasharray:none"
       d="m 838.92824,1908.4673 39.48397,-15.2841 11.88765,-11.8876 2.54735,-9.3403 28.87,-22.9262 6.79294,-2.1228 8.49118,-15.6333 19.10515,-1.7736 81.51532,31.4173 26.3226,-5.0947 5.0947,-5.9438 15.2841,1.2737 12.3122,5.9438 -6.5786,9.6003 3.0021,31.5219 -40.228,-3.3023 -54.63789,-2.1015 -37.52605,-1.8012 -22.51563,9.9069 -27.31897,3.002 -36.62542,9.3065 -24.01668,-0.3002 z"
       id="108"
       class="feoda" />
  </g>
</svg>
