<?xml version="1.0" encoding="UTF-8" standalone="no"?>
<svg
   xmlns:dc="http://purl.org/dc/elements/1.1/"
   xmlns:cc="http://creativecommons.org/ns#"
   xmlns:rdf="http://www.w3.org/1999/02/22-rdf-syntax-ns#"
   xmlns:svg="http://www.w3.org/2000/svg"
   xmlns="http://www.w3.org/2000/svg"
   xmlns:xlink="http://www.w3.org/1999/xlink"
   xmlns:sodipodi="http://sodipodi.sourceforge.net/DTD/sodipodi-0.dtd"
   xmlns:inkscape="http://www.inkscape.org/namespaces/inkscape"
   version="1.1"
   id="svg10"
   width="1920"
   height="2887"
   viewBox="0 0 1920 2887"
   sodipodi:docname="map.svg"
   inkscape:version="1.0.2-2 (e86c870879, 2021-01-15)">
  <sodipodi:namedview
     pagecolor="#ffffff"
     bordercolor="#666666"
     borderopacity="1"
     objecttolerance="10"
     gridtolerance="10"
     guidetolerance="10"
     inkscape:pageopacity="0"
     inkscape:pageshadow="2"
     inkscape:window-width="1920"
     inkscape:window-height="1017"
     id="namedview865"
     showgrid="false"
     inkscape:zoom="6.6620382"
     inkscape:cx="634.44855"
     inkscape:cy="794.99644"
     inkscape:window-x="-8"
     inkscape:window-y="-8"
     inkscape:window-maximized="1"
     inkscape:current-layer="svg10" />
  <metadata
     id="metadata16">
    <rdf:RDF>
      <cc:Work
         rdf:about="">
        <dc:format>image/svg+xml</dc:format>
        <dc:type
           rdf:resource="http://purl.org/dc/dcmitype/StillImage" />
        <dc:title />
      </cc:Work>
    </rdf:RDF>
  </metadata>
  <defs
     id="defs14" />
  <g
     id="g18"
     transform="translate(0,0.07543793)">
    <image
       sodipodi:absref="C:\Users\agro\source\repos\YSI.CurseOfSilverCrown\YSI.CurseOfSilverCrown.Web\wwwroot\assets\images\map.jpg"
       xlink:href="map.jpg"
       width="1920"
       height="2887"
       preserveAspectRatio="none"
       id="image20" />
    <path
       style="fill:none;stroke:#ffff00;stroke-width:1px;stroke-linecap:butt;stroke-linejoin:miter;stroke-opacity:1"
       d="m 1017.6675,86.68544 7.6421,-33.96471 11.463,-11.88764 76.4206,-21.22795 41.4084,-3.093677 1.3509,69.798459 z"
       id="1"
       class="feoda" />
    <path
       style="fill:none;stroke:#ffff00;stroke-width:1px;stroke-linecap:butt;stroke-linejoin:miter;stroke-opacity:1"
       d="m 1154.6016,16.511463 1.3509,69.798459 120.006,-0.23062 -2.282,-68.172392 -66.6558,-5.51927 z"
       id="2"
       class="feoda" />
    <path
       style="fill:none;stroke:#ffff00;stroke-width:1px;stroke-linecap:butt;stroke-linejoin:miter;stroke-opacity:1"
       d="m 1273.6765,17.90691 2.282,68.172392 69.8929,-0.167544 -1.2736,-11.88765 14.435,-4.67014 29.7191,-1.773678 11.0385,-8.415742 27.5963,-1.198232 -2.5473,-11.963088 -8.9158,-17.83147 L 1416.3282,0.5 h -79.8171 l -19.9542,12.73676 z"
       id="3"
       class="feoda" />
    <path
       style="fill:none;stroke:#ffff00;stroke-width:1px;stroke-linecap:butt;stroke-linejoin:miter;stroke-opacity:1"
       d="m 1017.6675,86.68544 328.1839,-0.84912 -1.2736,-11.88765 14.435,-4.67014 29.7191,-1.69824 11.0385,-8.49118 27.5963,-1.27367 20.3789,25.822648 2.9719,22.926172 -14.8596,5.94383 -8.0666,8.06662 -13.5859,3.82103 -9.3403,9.76485 3.3965,12.73676 h -10.614 l -3.3964,9.76486 -42.4559,14.01044 -42.0313,4.24559 -8.9158,3.82102 -10.1894,-8.06661 -8.0666,0.42456 -6.7929,-4.24559 -5.9439,2.54735 -4.6701,-10.61397 -16.1332,18.25603 -6.3684,-5.51927 -5.0947,5.09471 -5.9439,-6.79294 -14.435,16.55779 -3.821,-5.0947 -14.0104,3.39647 -14.435,-8.49118 -28.0209,-5.94382 -21.2279,-12.73677 -6.793,-8.91573 -8.5241,4.96102 -19.3634,-11.78318 -11.0327,11.63307 -16.5114,-11.70812 -15.3857,13.73453 -35.3496,-30.47115 19.1383,-14.03475 -3.3023,-5.40375 3.9778,-4.05281 -14.1098,-3.4524 z"
       id="4"
       class="feoda" />
    <path
       style="fill:none;stroke:#ffff00;stroke-width:1px;stroke-linecap:butt;stroke-linejoin:miter;stroke-opacity:1"
       d="m 1416.3282,0.5 -0.4246,27.59632 8.9158,17.83147 2.5473,11.963088 20.3789,25.822648 2.9719,22.926174 12.7368,15.63324 27.5963,14.435 5.9438,4.67015 6.1561,12.73676 10.4017,7.00522 11.8877,1.91052 11.6753,14.435 12.3122,3.60875 17.4069,1.69823 22.2894,9.97714 18.0437,-0.21228 5.5193,-10.18941 23.7753,-0.21228 8.2789,-1.91052 0.6368,-13.79816 11.6754,-9.97713 6.7929,-10.82625 -0.4245,-10.18942 11.8876,-13.3736 11.8877,-27.384042 3.821,-20.166544 11.8876,-11.675368 7.2175,-35.450662 2.972,-27.17176459 z"
       id="5"
       class="feoda" />
    <path
       style="fill:none;stroke:#ffff00;stroke-width:1px;stroke-linecap:butt;stroke-linejoin:miter;stroke-opacity:1"
       d="m 1644.7409,180.30066 -8.2789,1.91052 -23.7753,0.21228 -5.5193,10.18941 -18.0437,0.21228 -22.2894,-9.97714 -17.4069,-1.69823 -12.3122,-3.60875 -11.6753,-14.435 -11.8877,-1.91052 -10.4017,-7.00522 -31.9791,31.33852 -4.353,-0.30021 -7.205,5.55385 -10.8075,2.70188 -0.7506,7.65531 -9.7567,5.10355 h -4.1279 l -12.4587,7.3551 -12.3085,2.40167 -5.5539,5.10354 -6.3043,-0.45031 3.4988,20.49622 0.2123,15.70868 -11.0385,20.5911 -38.2103,43.94184 -3.8211,9.55257 -10.1894,10.18942 0.2123,5.30698 14.0105,3.39647 18.4683,9.55257 14.435,35.23839 16.1332,18.68059 v 7.85433 l -1.9105,28.02089 9.3403,8.91573 -0.2123,11.67537 -3.3965,3.60875 6.1561,8.06662 0.8492,9.97713 15.4963,18.25603 13.5859,0.42456 1.6983,3.60875 11.2508,2.75963 8.9157,10.82625 10.1894,0.84912 5.5193,5.30698 -1.486,10.61397 7.4298,9.97714 h 4.0333 l 25.4735,23.77529 10.8263,-28.87 7.2175,-2.97191 15.4964,-35.23838 9.9771,-3.39647 17.8315,7.2175 11.2508,1.27367 24.6244,13.79816 12.9491,0.42456 13.3736,2.54736 7.0052,-27.38405 5.7315,-6.1561 0.4246,-16.5578 4.8824,-7.64205 1.9105,-13.79817 3.3965,-4.67014 -1.486,-16.77008 7.8544,-9.12801 0.4245,-11.88765 8.0667,-13.58588 10.4017,-30.35596 3.1841,-4.88242 v -10.4017 l -6.3683,-13.16132 9.9771,-19.5297 0.2123,-26.74721 -8.4912,-15.4964 v -9.55257 l 2.7596,-10.61397 -0.6368,-10.82625 -14.8596,-11.25081 -7.8543,-16.55779 -7.4298,-11.25081 0.4246,-15.4964 1.4859,-6.36838 z"
       id="6"
       class="feoda" />
    <path
       style="fill:none;stroke:#ffff00;stroke-width:1px;stroke-linecap:butt;stroke-linejoin:miter;stroke-opacity:1"
       d="m 1338.2094,346.51544 -0.2123,-5.30698 10.1894,-10.18942 3.8211,-9.55257 38.2103,-43.94184 11.0385,-20.5911 -0.2123,-15.70868 -3.4988,-20.49622 6.3043,0.45031 5.5539,-5.10354 12.3085,-2.40167 12.4587,-7.3551 h 4.1279 l 9.7567,-5.10355 0.7506,-7.65531 10.8075,-2.70188 7.205,-5.55385 4.353,0.30021 31.9791,-31.41396 -6.1561,-12.73676 -5.9438,-4.67015 -27.5963,-14.435 -12.7368,-15.63324 -14.8596,5.86839 -8.0666,8.06662 -13.5859,3.82103 -9.3403,9.76485 3.3965,12.73676 h -10.614 l -3.3964,9.76486 -42.4559,14.01044 -42.0313,4.24559 -8.9158,3.82102 -10.1894,-8.06661 -8.0666,0.42456 -6.7929,-4.24559 -5.9439,2.54735 -4.6701,-10.61397 -16.1332,18.25603 -6.3684,-5.51927 -5.0947,5.09471 -5.9439,-6.79294 -14.435,16.55779 -3.821,-5.0947 -14.0104,3.39647 -14.435,-8.49118 -18.999,-3.89647 -9.871,11.99379 4.0333,3.82103 -7.1114,6.1561 5.8377,19.31743 -4.4579,7.00522 5.2009,11.03853 0.2123,13.9043 -23.1385,13.79816 5.6254,23.45688 7.6421,13.47974 -1.9105,28.02088 -5.4132,7.00522 1.5921,29.50684 -5.9438,15.39026 -0.3184,8.59731 -4.6702,3.29034 2.229,20.90952 -4.0333,12.8429 -2.229,12.20607 -6.0499,6.47452 0.2123,9.34029 7.7481,10.72011 13.7982,8.49118 32.691,5.83769 h 22.0771 l 12.0999,-3.1842 9.4465,3.29033 21.334,-12.63062 5.2009,-0.5307 37.4673,-21.97092 4.9886,-6.04996 -1.9105,-26.42879 17.1946,-24.41213 z"
       id="7"
       class="feoda" />
    <path
       style="fill:none;stroke:#ffff00;stroke-width:1px;stroke-linecap:butt;stroke-linejoin:miter;stroke-opacity:1"
       d="m 1017.6675,86.760878 10.7715,11.33261 14.1098,3.452402 -3.9778,4.05281 3.3023,5.40375 -19.1383,14.03475 35.3496,30.47115 15.3857,-13.73453 16.5114,11.70812 11.0327,-11.63307 19.3634,11.78318 8.5241,-4.96102 6.793,8.91573 21.2279,12.73677 9.0219,2.12279 -9.871,11.99379 4.0333,3.82103 -7.1114,6.1561 5.8377,19.31743 -4.4579,7.00522 5.2009,11.03853 0.2123,13.9043 -23.1385,13.79816 4.1395,17.43761 -16.5578,3.92717 -13.0552,7.42978 -11.9938,-3.92717 -16.3455,1.91052 -4.1395,4.564 9.128,7.53592 -9.8709,5.30699 -7.6421,8.17276 -28.2332,-9.02188 -18.4683,-0.10614 -2.335,5.51927 8.5973,4.98856 1.2736,8.70346 9.3403,11.67537 -4.4578,6.47452 -4.8825,-0.5307 -2.8657,4.77629 7.7482,5.83768 -4.1395,7.85434 -8.9157,7.85434 -11.4631,1.48595 -21.54636,7.7482 9.65871,12.94905 0.74295,7.64205 -8.17273,7.7482 -11.25081,-2.54735 -11.88764,3.50261 -2.54736,-7.2175 -4.88242,-3.39647 -13.16133,-2.54735 -2.75963,-6.79294 10.40169,-8.70346 4.67015,-6.1561 4.24559,-1.27368 3.60875,-7.00522 -8.06662,-7.42978 -16.55779,-5.51926 -26.53493,-5.73155 -5.73154,-6.36838 7.85433,-8.49118 18.46831,-8.91573 1.27368,-5.94383 4.88243,-5.51926 1.06139,-7.85434 11.03853,-3.60875 6.36838,-4.24559 10.82625,-15.49639 6.15611,4.0333 16.98235,-14.64728 7.64206,-10.40169 -0.4246,-27.59632 -2.7596,-5.09471 4.8824,-5.94382 -11.03849,-11.67537 -6.36839,-2.12279 4.88243,-5.09471 8.91575,-8.70345 9.9771,-6.36839 1.9105,-10.82625 -2.7596,-4.88242 3.1842,-5.73155 -15.92097,-12.52448 V 137.1325 l -4.0333,-5.94382 3.39647,-5.30699 -11.25081,-6.1561 9.55257,-11.25081 -6.58066,-4.24559 z"
       id="8"
       class="feoda" />
    <path
       style="fill:none;stroke:#ffff00;stroke-width:1px;stroke-linecap:butt;stroke-linejoin:miter;stroke-opacity:1"
       d="m 911.74008,336.32603 7.85433,-8.49118 18.46831,-8.91573 1.27368,-5.94383 4.88243,-5.51926 1.06139,-7.85434 11.03853,-3.60875 6.36838,-4.24559 10.82625,-15.49639 6.15611,4.0333 16.98235,-14.64728 7.64206,-10.40169 -0.4246,-27.59632 -2.7596,-5.09471 4.8824,-5.94382 -11.03849,-11.67537 -6.36839,-2.12279 13.79818,-13.79816 9.9771,-6.36839 1.9105,-10.82625 -2.7596,-4.88242 3.1842,-5.73155 -15.92097,-12.52448 v -11.46309 l -4.0333,-5.94382 3.39647,-5.30699 -11.25081,-6.1561 9.55257,-11.25081 -6.58066,-4.24559 27.8086,-17.468314 4.3921,-19.589629 -9.0063,-7.730367 -18.08753,10.056982 -15.68589,1.42599 -1.80125,3.002085 7.43016,1.876302 -13.95969,11.182764 -8.40584,-0.450313 -2.17651,4.878387 -7.65532,-1.951355 -3.00208,3.002085 -8.9312,-3.827658 -15.53579,0.225157 -8.40583,7.205002 -18.68234,4.054132 -8.91573,5.94383 -19.10515,10.18941 -3.82103,7.42978 -10.61397,10.18941 -5.09471,-0.42456 -13.3736,18.46831 -6.1561,3.18419 -11.88765,-1.0614 -4.03331,14.85956 -1.06139,13.37361 -2.1228,7.42977 -5.73154,9.97714 -4.67015,14.22272 -9.34029,6.1561 -9.76486,1.91052 -1.48595,22.50161 -13.79816,13.16133 -9.55258,4.88242 0.42456,4.24559 5.09471,2.97191 6.1561,16.5578 17.19463,5.51926 4.88243,6.79294 -1.27368,17.40691 2.97191,22.07706 4.03331,5.30699 5.73155,2.97191 3.18419,10.40169 5.30698,-4.03331 7.2175,2.54736 11.88765,22.07705 18.04375,-20.5911 31.20507,-21.01566 24.41214,-3.60875 z"
       id="9"
       class="feoda" />
    <path
       style="fill:none;stroke:#ffff00;stroke-width:1px;stroke-linecap:butt;stroke-linejoin:miter;stroke-opacity:1"
       d="m 819.18625,154.19029 -4.03331,14.85956 -1.06139,13.37361 -2.1228,7.42977 -5.73154,9.97714 -4.67015,14.22272 -9.34029,6.1561 -9.76486,1.91052 -1.48595,22.50161 -13.79816,13.16133 -9.55258,4.88242 -10.40645,15.02772 -4.80334,-0.60041 -5.10354,-3.00209 -12.60876,1.20083 h -23.11604 l -9.00626,-9.00625 -12.90896,3.6025 -24.46698,-0.1501 -4.57818,3.82766 -15.836,-6.37943 -15.16052,3.37734 -28.29465,-14.18485 -0.60041,-6.22932 -5.40376,-6.75469 0.45032,-7.43016 4.27797,-3.07714 0.0751,-60.11673 5.92912,-14.03475 18.31271,-2.70187 36.62543,-2.70188 15.76094,-6.07922 6.75469,0.52537 5.10354,2.10146 52.61153,2.0264 12.83391,-11.70813 25.51771,-0.90062 8.85615,4.05281 12.15844,1.65115 z"
       id="10"
       class="feoda" />
    <path
       style="fill:none;stroke:#ffff00;stroke-width:1px;stroke-linecap:butt;stroke-linejoin:miter;stroke-opacity:1"
       d="m 591.33554,256.45343 28.29465,14.18485 2.77305,6.17407 -1.69824,25.79195 18.89287,37.89188 -10.82625,11.35695 -0.63684,20.90952 4.03331,10.08327 -7.85434,6.36838 -12.94904,4.03331 1.51079,2.87741 -7.0549,7.65531 -13.65948,26.86865 -18.91313,19.66366 1.95135,7.80541 13.65948,5.25365 -1.65114,10.95761 12.00833,6.90479 v 6.45448 l -1.80125,6.15428 5.55386,10.20708 7.205,4.65323 -0.75052,5.25365 -4.05281,4.95344 0.60041,11.40792 -15.76094,9.90688 -6.30438,12.75886 -25.66782,12.30854 -4.20291,9.00625 -11.10772,10.05699 -74.30158,1.05073 -1.20083,-15.01042 -10.80751,-6.60459 -12.00833,-0.30021 -0.60042,-22.21542 -22.20907,-9.0913 -2.44121,-4.51094 0.0531,-9.60564 -3.66182,-6.89908 6.73987,-8.49118 3.23726,-0.74298 4.98857,-15.01877 13.63895,-7.00522 0.0531,-6.47452 10.61397,-11.72844 3.50261,-0.84912 14.22272,-21.22794 9.65871,-5.30698 5.30699,-15.28412 7.85434,-1.37982 0.74298,-9.65871 1.59209,-2.97191 -6.89908,-7.7482 0.31842,-6.47452 -16.55779,-8.2789 -8.59732,1.27368 -2.54735,4.03331 -16.13324,-0.84912 -8.80959,6.79294 -12.41835,5.51926 -7.96048,19.95427 -11.25081,5.73154 -6.36838,15.39026 -6.1561,-0.5307 -2.33508,-14.85956 4.24559,-6.58066 0.5307,-29.71912 3.29033,-7.85433 -2.65349,-18.36217 6.1561,-13.37361 0.31842,-15.49639 11.14467,-6.79294 6.6868,-20.90953 22.07706,-2.44121 3.07805,-4.13945 9.65872,0.10614 5.83768,-5.41312 7.53592,1.59209 2.01665,-6.79294 8.06662,-3.39647 3.29033,-8.38504 -1.80437,-25.79195 5.0947,-1.69823 16.66394,6.1561 3.50261,5.62541 18.89286,7.00522 7.2175,-11.46309 14.24636,0.19537 13.73453,1.5761 z"
       id="11"
       class="feoda" />
    <path
       style="fill:none;stroke:#ffff00;stroke-width:1px;stroke-linecap:butt;stroke-linejoin:miter;stroke-opacity:1"
       d="m 830.43706,377.50823 -11.88765,-22.07705 -7.2175,-2.54736 -5.30698,4.03331 -3.18419,-10.40169 -5.73155,-2.97191 -4.03331,-5.30699 -2.97191,-22.07706 1.27368,-17.40691 -4.88243,-6.79294 -17.19463,-5.51926 -6.1561,-16.5578 -5.09471,-2.97191 -0.42456,-4.24559 -10.40645,15.10316 -4.80334,-0.60041 -5.10354,-3.00209 -12.60876,1.20083 h -23.11604 l -9.00626,-9.00625 -12.90896,3.6025 -24.46698,-0.1501 -4.57818,3.82766 -15.836,-6.37943 -15.16052,3.45278 2.77305,6.17407 -1.69824,25.79195 18.89287,37.89188 -10.82625,11.35695 -0.63684,20.90952 4.03331,10.08327 -7.85434,6.36838 -12.94904,4.03331 1.51079,2.87741 -7.0549,7.65531 -13.65948,26.86865 -18.91313,19.66366 1.95135,7.80541 13.65948,5.25365 16.56206,1.86933 8.70346,-3.18419 29.29456,9.12802 7.42978,-7.64206 7.85434,0.63683 8.27889,-7.2175 3.82103,2.75964 24.19986,-12.31221 17.40691,-7.42978 45.00323,2.1228 8.70346,-6.36839 12.94904,2.97192 8.70346,-12.73677 45.15937,-0.34923 15.91105,2.40166 -23.71647,-34.22376 -1.05073,-12.00833 z"
       id="12"
       class="feoda" />
    <path
       style="fill:none;stroke:#ffff00;stroke-width:1px;stroke-linecap:butt;stroke-linejoin:miter;stroke-opacity:1"
       d="m 848.83932,428.17265 -23.71647,-34.22376 -1.05073,-12.00833 6.36494,-4.35689 18.04375,-20.66654 31.20507,-21.01566 24.41214,-3.60875 7.64206,4.10875 5.73154,6.29294 26.53493,5.73155 16.55779,5.51926 8.06662,7.42978 -3.60875,7.00522 -4.24559,1.27368 -4.67015,6.1561 -10.40169,8.70346 2.75963,6.79294 13.16133,2.54735 4.88242,3.39647 2.54736,7.2175 -6.88752,-0.087 -4.80334,5.10354 -7.205,1.80125 -7.205,7.205 2.40167,15.61084 -5.70396,5.70396 -0.60042,7.205 -5.40375,8.10563 -3.90271,0.30021 -13.80959,-15.61084 -13.50938,-7.80542 -10.50729,3.00209 -14.71022,-11.70813 -8.70604,3.6025 z"
       id="13"
       class="feoda" />
    <path
       style="fill:none;stroke:#fffe00;stroke-width:1px;stroke-linecap:butt;stroke-linejoin:miter;stroke-opacity:1"
       d="m 1131.1308,460.72176 -7.7481,-10.72011 -0.2123,-9.34029 6.0499,-6.47452 2.229,-12.20607 4.0333,-12.8429 -2.229,-20.90952 4.6702,-3.29034 0.3184,-8.59731 5.9438,-15.39026 -1.5921,-29.50684 5.4132,-7.00522 1.9105,-28.02088 -7.6421,-13.47974 -1.4859,-5.94383 -16.5578,3.92717 -13.0552,7.42978 -11.9938,-3.92717 -16.3455,1.91052 -4.1395,4.564 9.128,7.53592 -9.8709,5.30699 -7.6421,8.17276 -28.2332,-9.02188 -18.4683,-0.10614 -2.335,5.51927 8.5973,4.98856 1.2736,8.70346 9.3403,11.67537 -4.4578,6.47452 -4.8825,-0.5307 -2.8657,4.77629 7.7482,5.83768 -4.1395,7.85434 -8.9157,7.85434 -11.4631,1.48595 -21.54636,7.7482 9.65871,12.94905 0.74295,7.64205 -8.17273,7.7482 -11.25081,-2.54735 -11.88764,3.50261 -6.88752,-0.0116 -4.80334,5.10354 -7.205,1.80125 -7.205,7.205 2.40167,15.61084 -5.70396,5.70396 -0.60042,7.205 -5.40375,8.10563 8.44783,18.19171 19.62166,23.31175 -3.4524,35.42459 2.55177,2.85198 15.61084,3.6025 14.2599,23.11605 -1.35094,49.9847 9.60667,13.35928 -0.60042,8.85615 3.00209,9.30646 -4.50313,7.205 45.18133,27.61918 24.1668,2.55177 4.6532,-6.9048 -0.4503,-11.25781 5.1036,-4.80334 -0.9006,-9.75677 -8.2558,-11.55803 3.1522,-6.90479 3.6025,-14.56011 6.7547,-7.65531 -3.0021,-23.71647 4.2029,-6.60458 -0.7505,-8.85615 18.3127,-12.15844 1.2009,-11.70813 6.3043,-3.75261 5.8541,-25.36761 -1.6511,-10.05698 6.9047,-7.50521 8.556,-1.80125 1.8012,-12.30855 7.0549,-8.70604 z"
       id="14"
       class="feoda" />
    <path
       style="fill:none;stroke:#fffc00;stroke-width:1px;stroke-linecap:butt;stroke-linejoin:miter;stroke-opacity:1"
       d="m 1098.6127,555.9113 1.2009,-11.70813 6.3043,-3.75261 5.8541,-25.36761 -1.6511,-10.05698 6.9047,-7.50521 8.556,-1.80125 1.8012,-12.30855 7.0549,-8.70604 -3.5069,-13.90772 13.7982,8.41574 32.691,5.83769 h 22.0771 l 12.0999,-3.1842 9.4465,3.29033 21.334,-12.63062 5.2009,-0.5307 37.4673,-21.97092 4.9886,-6.04996 -1.9105,-26.42879 17.1946,-24.41213 32.691,-36.6182 14.0105,3.39647 18.4683,9.55257 14.435,35.23839 16.1332,18.68059 -1.9105,35.87522 9.3403,8.91573 -0.2123,11.67537 -3.3965,3.60875 6.1561,8.06662 0.8492,9.97713 15.4963,18.25603 13.5859,0.42456 1.6983,3.60875 11.2508,2.75963 8.9157,10.82625 10.1894,0.84912 5.5193,5.30698 -1.486,10.61397 7.4298,9.97714 h 4.0333 l 25.4735,23.77529 1.4132,21.46612 -5.854,13.50938 -2.1015,30.32105 -32.5726,-0.45031 -4.0528,2.10145 -7.8054,-6.60458 -4.8034,3.30229 -18.6129,-3.30229 -11.7081,2.70187 -27.319,-23.11604 -19.8138,-1.50105 -32.7227,-31.82209 -18.0125,-10.20709 -18.6129,2.70188 -16.5115,-1.50104 -5.7039,5.10354 -19.5136,3.00209 -21.9152,17.71229 -45.0312,7.80542 -38.1265,-6.00417 z"
       id="15"
       class="feoda" />
    <path
       style="fill:none;stroke:#ffff00;stroke-width:1px;stroke-linecap:butt;stroke-linejoin:miter;stroke-opacity:1"
       d="m 1507.6467,643.27199 -32.5726,-0.45031 -4.0528,2.10145 -7.8054,-6.60458 -4.8034,3.30229 -18.6129,-3.30229 -11.7081,2.70187 -27.319,-23.11604 -19.8138,-1.50105 0.9803,23.40682 2.9719,12.3122 -10.1894,13.16133 -14.8596,3.39647 -19.1051,-1.27368 -9.3403,5.09471 5.9438,16.55779 -8.9157,5.94383 11.463,28.87 12.4184,15.92095 -0.2123,8.2789 8.8096,6.47452 14.435,5.09471 11.1447,21.86478 3.1842,11.56922 22.82,-1.37981 28.87,19.21128 2.3351,13.16133 12.5245,16.13323 -1.9105,17.19464 3.3964,2.54735 h 25.6858 l 24.8367,8.70345 20.3788,-0.63683 8.9158,5.30698 34.3892,7.42978 37.1489,-10.61397 22.2894,0.42456 4.4579,-3.82103 7.4297,-4.45787 1.2737,-15.07184 -3.821,-15.92095 -18.6806,-15.70868 -7.6421,-3.60875 -4.2456,-11.46309 -31.8419,-15.28411 -9.3403,-18.68059 -2.9719,-16.13324 3.1842,-13.58588 -8.0666,-10.82625 -11.0385,-7.64206 -6.3684,-15.28412 -9.128,-12.09992 -1.0614,-22.50162 -9.128,-11.25081 -11.6754,-1.48596 -7.8543,-10.82625 z"
       id="16"
       class="feoda" />
    <path
       style="fill:none;stroke:#ffff00;stroke-width:1px;stroke-linecap:butt;stroke-linejoin:miter;stroke-opacity:1"
       d="m 1352.1137,748.14809 0.2123,-8.2789 -12.4184,-15.92095 -11.463,-28.87 8.9157,-5.94383 -5.9438,-16.55779 9.3403,-5.09471 19.1051,1.27368 14.8596,-3.39647 10.1894,-13.16133 -2.9719,-12.3122 -0.9803,-23.40682 -32.7227,-31.89753 -18.0125,-10.20709 -18.6129,2.70188 -16.5115,-1.50104 -5.7039,5.10354 -19.5136,3.00209 -21.9152,17.71229 -45.0312,7.80542 -38.1265,-6.00417 -66.196,-47.28286 -18.3127,12.15844 0.7505,8.85615 -4.2029,6.60458 3.0021,23.71647 -6.7547,7.65531 -6.7547,21.4649 8.2558,11.55803 0.9006,9.75677 -5.1036,4.80334 0.4503,11.25781 7.1115,4.59576 11.463,0.84912 45.0033,23.35074 43.2964,27.26796 29.7207,14.41 49.8346,1.20084 5.1035,-4.20292 h 13.2092 l 6.0042,7.80542 8.4058,-14.1098 10.5073,-5.10354 2.7019,-8.40584 7.205,7.50521 15.6108,7.50521 13.5094,2.40167 6.9583,7.24306 z"
       id="17"
       class="feoda" />
    <path
       style="fill:none;stroke:#ffff00;stroke-width:1px;stroke-linecap:butt;stroke-linejoin:miter;stroke-opacity:1"
       d="m 1177.7176,729.88212 -43.2964,-27.26796 -45.0033,-23.35074 -11.463,-0.84912 -7.1115,-4.6712 -4.6532,6.9048 -24.1668,-2.55177 -45.18133,-27.61918 -1.88846,10.34886 5.09469,47.33831 8.7035,53.06985 8.7034,6.58066 25.6858,0.63684 22.0771,-1.48595 21.8648,5.51926 28.6577,1.69824 12.0999,2.33507 14.8596,-6.58066 22.077,-19.74199 z"
       id="18"
       class="feoda" />
    <path
       style="fill:none;stroke:#ffff00;stroke-width:1px;stroke-linecap:butt;stroke-linejoin:miter;stroke-opacity:1"
       d="m 1008.7518,761.30941 -8.75754,-53.04269 -5.04065,-47.36547 1.88846,-10.4243 4.50313,-7.205 -3.00209,-9.30646 0.60042,-8.85615 -9.60667,-13.35928 1.35094,-49.9847 -14.2599,-23.11605 -15.61084,-3.6025 -2.55177,-2.85198 -2.58338,6.67646 -19.95426,22.1832 7.7482,28.23316 9.87099,7.7482 -0.5307,4.98856 -10.50783,0.84912 -10.72011,9.87099 2.54735,15.60254 -11.56922,13.47974 -9.12802,5.94383 -6.6868,14.85956 14.11658,43.51728 4.77629,34.17698 0.31842,27.59632 30.24981,-8.49117 z"
       id="19"
       class="feoda" />
    <path
       style="fill:none;stroke:#fffb00;stroke-width:1px;stroke-linecap:butt;stroke-linejoin:miter;stroke-opacity:1"
       d="m 906.75151,662.63019 6.6868,-14.85956 9.12802,-5.94383 11.56922,-13.47974 -2.54735,-15.60254 10.72011,-9.87099 10.50783,-0.84912 0.5307,-4.98856 -9.87099,-7.7482 -7.7482,-28.23316 19.95426,-22.1832 2.58338,-6.67646 3.4524,-35.42459 -19.62166,-23.31175 -8.44783,-18.19171 -3.90271,0.22481 -13.80959,-15.61084 -13.50938,-7.80542 -10.50729,3.00209 -14.71022,-11.70813 -8.70604,3.6025 -19.66365,1.2763 -15.91105,-2.4771 -45.15937,0.34923 -8.70346,12.73677 -12.94904,-2.97192 -8.70346,6.36839 -45.00323,-2.1228 -41.60677,19.74199 -3.82103,-2.75964 -8.27889,7.2175 -7.85434,-0.63683 -7.42978,7.64206 -29.29456,-9.12802 -8.70346,3.18419 -16.56206,-1.86933 -1.65114,10.88217 12.00833,6.90479 v 6.45448 l -1.80125,6.15428 5.55386,10.20708 7.205,4.65323 -0.75052,5.25365 -4.05281,4.95344 0.60041,11.40792 10.06415,6.24873 21.97092,-0.53069 14.64728,8.17275 10.40169,13.58589 -0.74297,21.75864 19.42356,12.09992 3.71489,9.12802 10.72011,15.49639 -2.97191,13.26747 14.54294,21.98164 10.20709,-0.3002 1.05073,-2.40167 -3.3023,-7.35511 10.20709,-17.8624 -1.35094,-8.70604 6.00417,-10.5073 21.91521,-13.95969 10.20709,8.55594 6.60459,-1.80125 5.40375,3.90271 9.15635,-0.60042 8.10563,-4.35302 14.71021,8.25573 22.06532,18.31272 14.56011,-7.20501 22.81584,-5.55385 14.71022,7.80542 2.25156,9.90687 9.60667,24.46699 5.40375,6.45448 z"
       id="20"
       class="feoda" />
    <path
       style="fill:none;stroke:#ffff00;stroke-width:1px;stroke-linecap:butt;stroke-linejoin:miter;stroke-opacity:1"
       d="m 925.64438,740.39989 -4.77629,-34.17698 -14.11658,-43.51728 -8.67801,-3.97291 -5.40375,-6.45448 -9.60667,-24.46699 -2.25156,-9.90687 -14.71022,-7.80542 -22.81584,5.55385 -14.56011,7.20501 -22.06532,-18.31272 -14.71021,-8.25573 -8.10563,4.35302 -9.15635,0.60042 -5.40375,-3.90271 -6.60459,1.80125 -10.20709,-8.55594 -21.91521,13.95969 -6.00417,10.5073 1.35094,8.70604 -10.20709,17.8624 3.3023,7.35511 -1.05073,2.40167 -10.20709,0.3002 -14.54294,-21.98164 2.97191,-13.26747 -10.72011,-15.49639 -3.71489,-9.12802 -19.42356,-12.09992 0.74297,-21.75864 -10.40169,-13.58589 -14.64728,-8.17275 -21.97092,0.53069 -10.06415,-6.32417 -15.76094,9.90688 -6.30438,12.75886 -25.66782,12.30854 -4.20291,9.00625 -11.10772,10.05699 -8.19509,11.86173 -32.05419,18.68059 -11.46309,10.82625 -8.70346,14.435 -12.09992,5.94382 -0.42456,6.58066 -7.85434,11.67537 13.16132,5.09471 -1.06139,5.94382 -9.55258,4.03331 25.89809,8.49117 18.04375,-4.67014 11.88765,3.18419 8.06662,-8.06662 21.22794,0.63684 5.51926,10.82625 19.10515,12.94904 7.42978,-4.45786 32.26647,-0.21228 8.2789,-4.45787 -2.97192,17.61919 2.1228,13.16132 3.82103,12.52449 4.45787,-1.69824 5.30698,9.12802 28.23316,13.16132 12.09993,14.64728 13.58588,0.21228 12.73677,-3.39647 9.76485,-17.83147 8.70346,-4.88243 7.2175,1.27368 4.88242,-8.06662 11.25081,-0.42456 17.61919,-12.3122 12.31221,4.03331 24.62441,1.27367 21.01566,-4.67014 21.6525,0.63683 13.58588,6.79295 29.9314,3.60875 h 24.41213 z"
       id="21"
       class="feoda" />
    <path
       style="fill:none;stroke:#ffff00;stroke-width:1px;stroke-linecap:butt;stroke-linejoin:miter;stroke-opacity:1"
       d="m 464.67963,679.58184 9.55258,-4.03331 1.06139,-5.94382 -13.16132,-5.09471 7.85434,-11.67537 0.42456,-6.58066 12.09992,-5.94382 8.70346,-14.435 11.46309,-10.82625 32.05419,-18.68059 8.19509,-11.93717 -74.30158,1.05073 -1.20083,-15.01042 -10.80751,-6.60459 -12.00833,-0.30021 -31.83136,-9.3051 -2.75964,-4.88243 -7.53591,-4.03331 -35.87522,2.22893 -12.20607,-3.39647 -11.67537,3.82103 -0.74298,11.67537 -9.34029,8.17276 -18.36217,5.94382 -5.6254,11.46309 2.97191,5.20085 -3.50261,7.42977 -6.58066,4.88243 -2.97192,21.75864 -11.03853,12.63063 -23.88143,2.12279 -29.50684,17.30077 -0.5307,6.36838 30.88666,15.81482 1.06139,15.92096 12.84291,8.27889 0.31842,22.92618 -2.44121,14.54114 6.79294,14.11658 0.10614,7.85434 -2.75964,6.04996 4.56401,3.39647 -1.0614,15.28412 -7.74819,12.63063 0.84911,9.65871 3.82103,9.87099 -4.564,10.29555 -0.63684,7.00522 -2.75964,2.54736 -4.35172,19.63584 1.27367,7.96048 -2.44121,7.53592 1.16754,26.42879 -6.15611,4.45786 0.74298,4.56401 9.44644,0.5307 26.7472,-11.88765 19.42357,-0.74297 0.84912,-7.11137 7.32363,-5.83768 18.04376,-4.03331 5.73154,-11.46309 9.44643,-5.0947 5.30699,-8.06662 -1.48596,-7.7482 -6.79294,-6.79294 -1.59209,-15.07184 1.27367,-8.59731 5.20085,-3.39647 9.44643,-0.63684 1.48596,-5.51927 16.98235,-9.87099 12.63063,-17.51305 7.53591,-6.1561 7.42978,-9.55258 4.03331,2.1228 15.70868,-15.17798 7.7482,-4.98857 10.82625,-0.74298 4.67015,-9.44643 6.1561,-4.67015 3.71489,-9.87099 z"
       id="22"
       class="feoda" />
    <path
       style="fill:none;stroke:#ffff00;stroke-width:1px;stroke-linecap:butt;stroke-linejoin:miter;stroke-opacity:1"
       d="M 675.47309,772.34794 663.37316,757.70066 635.14,744.53934 l -5.30698,-9.12802 -4.45787,1.69824 -5.94383,-25.68581 2.97192,-17.61919 -8.2789,4.45787 -32.26647,0.21228 -7.42978,4.45786 -19.10515,-12.94904 -5.51926,-10.82625 -21.22794,-0.63684 -8.06662,8.06662 -11.88765,-3.18419 -18.04375,4.67014 -25.89809,-8.41573 5.73155,42.805 -3.71489,9.87099 -6.1561,4.67015 -4.67015,9.44643 -10.82625,0.74298 -7.7482,4.98857 -15.70868,15.17798 -4.03331,-2.1228 -7.42978,9.55258 -7.53591,6.1561 -12.63063,17.51305 -16.98235,9.87099 -1.48596,5.51927 -9.44643,0.63684 -5.20085,3.39647 -1.27367,8.59731 1.59209,15.07184 6.79294,6.79294 1.48596,7.7482 -5.30699,8.06662 -9.44643,5.0947 -5.73154,11.46309 23.66915,20.19725 15.28412,20.16654 0.74298,7.64206 9.76485,2.22893 3.07805,4.77629 0.10614,5.20085 6.36838,4.98856 h 8.38504 l 13.16132,12.94905 8.06662,-0.10614 5.20085,5.83768 0.84911,10.82625 12.20607,0.31842 15.70868,8.17276 11.03853,0.95525 16.34551,2.1228 3.39647,8.06662 39.16555,2.44121 18.36217,-11.35695 6.47452,-2.75963 3.07805,-6.79294 17.72534,-6.89908 13.58588,1.91051 8.17276,1.91051 13.3736,-5.30698 -2.2361,-9.04049 -14.18485,-7.88047 -1.95136,-6.00416 8.18068,-8.55595 -0.63462,-5.98625 -4.72322,-9.55257 0.47946,-11.40488 4.27797,-6.64211 -3.00209,-8.96873 5.40375,-6.75469 7.20501,-2.85198 0.45031,-30.62126 6.15427,-8.70604 4.80334,-0.45032 5.40375,-8.25573 10.35719,-4.80333 9.00625,-11.85823 0.30021,-8.10563 6.45448,-2.70188 10.20709,-23.26615 z"
       id="23"
       class="feoda" />
  </g>
</svg>
